<svg height="55" width="225" xmlns="http://www.w3.org/2000/svg"><g fill="#d73f3f" fill-rule="evenodd"><path d="M42.477 23.805c0-.555.119-1.05.355-1.477.235-.43.547-.778.935-1.057.385-.278.82-.489 1.302-.63a5.14 5.14 0 0 1 1.455-.213c.487 0 .973.071 1.456.212.48.142.914.353 1.3.631.388.279.699.628.936 1.057.237.427.354.922.354 1.477v7.3c0 .567-.117 1.064-.354 1.485-.237.423-.548.77-.936 1.049-.386.28-.82.491-1.3.631a5.139 5.139 0 0 1-2.911 0 4.192 4.192 0 0 1-1.302-.631 3.178 3.178 0 0 1-.935-1.049c-.236-.42-.355-.918-.355-1.484zM44.8 31.11c0 .475.265.83.59 1.056a1.95 1.95 0 0 0 1.147.347c.44 0 .825-.12 1.148-.347.323-.226.507-.58.507-1.056v-7.302c0-.477-.184-.831-.507-1.057a1.985 1.985 0 0 0-1.148-.378c-.441 0-.824.152-1.147.378-.325.226-.59.58-.59 1.057zm-6.507-10.697v5.93H34.59v-5.93h-2.025V34.49h2.025v-5.932h3.702v5.932h2.178V20.413zm21.857 0h-8.037v2.07h2.97L55.05 34.49h2.136V22.484h2.964z"/><path d="M75.054 32.962H91.41l-9.78-10.998-9.736-10.998L62.157 0H13.238l9.736 10.966H6.582l9.738 10.998.075.074H0l9.776 10.998 9.741 10.998L29.254 55h48.919l-9.741-10.966-.072-.107h16.394zm-29.35 12.813c-10.922 0-19.776-8.182-19.776-18.274 0-10.095 8.854-18.277 19.776-18.277 10.923 0 19.778 8.182 19.778 18.277 0 10.092-8.855 18.274-19.778 18.274zM110.727.579v4.573h-4.498V.579h-2.539v11.196h2.54v-4.62h4.497v4.62h2.54V.579zm7.572 11.367a3.28 3.28 0 0 1-1.105-.18 2.354 2.354 0 0 1-.887-.556 2.58 2.58 0 0 1-.587-.963c-.142-.391-.212-.852-.212-1.385V3.585h2.258v4.964c0 .542.12.952.36 1.229.24.277.596.414 1.067.414.48 0 .883-.148 1.213-.446.33-.297.494-.748.494-1.354V3.585h2.258v8.19H120.9V10.49a2.635 2.635 0 0 1-.948 1.04c-.423.277-.974.416-1.653.416m7.053-8.36h2.274v1.252c.208-.386.524-.722.948-1.01.423-.287.942-.43 1.559-.43.544 0 1.012.115 1.402.344.393.23.688.59.887 1.08.334-.5.748-.863 1.238-1.087a3.623 3.623 0 0 1 1.52-.337c.377 0 .73.06 1.059.18.33.12.62.304.87.556.24.26.428.59.564.986.136.397.204.867.204 1.409v5.245h-2.258V6.768c0-.534-.113-.92-.337-1.162-.224-.24-.541-.36-.948-.36a1.62 1.62 0 0 0-1.121.415c-.308.277-.462.698-.462 1.264v4.849h-2.257V6.768c0-.534-.114-.92-.345-1.162s-.544-.36-.941-.36a1.62 1.62 0 0 0-1.12.415c-.308.277-.462.698-.462 1.264v4.849h-2.274zm17.54 6.795c.502 0 .921-.13 1.26-.386.34-.259.511-.62.511-1.081V8.22h-.878c-.658 0-1.17.084-1.536.252-.367.169-.55.473-.55.915 0 .305.096.546.283.725.189.179.492.269.91.269m-.674 1.565a3.86 3.86 0 0 1-1.059-.141 2.49 2.49 0 0 1-.869-.438 2.089 2.089 0 0 1-.596-.76c-.147-.307-.22-.676-.22-1.104 0-.48.106-.886.314-1.22a2.38 2.38 0 0 1 .877-.815 4.34 4.34 0 0 1 1.349-.453 9.725 9.725 0 0 1 1.724-.142h.925v-.329c0-.49-.092-.863-.274-1.119-.183-.256-.536-.383-1.058-.383-.45 0-.781.104-.995.313-.215.208-.347.49-.4.845h-2.148c.031-.48.149-.898.352-1.252.205-.355.469-.648.792-.877.324-.23.704-.4 1.137-.509.433-.11.9-.164 1.403-.164.502 0 .962.054 1.38.164.417.11.783.285 1.096.524.303.24.539.554.707.94.165.386.25.856.25 1.41v5.338h-2.21v-.986a2.97 2.97 0 0 1-.933.83c-.382.22-.897.328-1.544.328m6.82-8.36h2.273v1.299c.208-.407.533-.757.97-1.05.44-.29 1.004-.437 1.694-.437.408 0 .778.063 1.112.187.335.126.627.314.879.564.24.261.427.593.563.994.137.402.204.874.204 1.417v5.214h-2.272V6.889c0-.564-.116-.978-.345-1.244-.23-.267-.595-.4-1.098-.4-.49 0-.899.15-1.223.447-.324.297-.484.749-.484 1.354v4.728h-2.273zm9.889 8.188h2.258V3.585h-2.258zm1.114-9.3a1.27 1.27 0 0 1-.918-.353 1.168 1.168 0 0 1-.368-.883c0-.356.122-.65.368-.885.245-.236.55-.353.918-.353a1.3 1.3 0 0 1 .924.353c.25.235.377.529.377.885 0 .354-.126.65-.377.883a1.3 1.3 0 0 1-.924.353zm6.41 9.457c-.866 0-1.525-.218-1.973-.65-.45-.433-.676-1.078-.676-1.935V5.2h-1.049V3.585h1.05V1.817h2.257v1.768h1.724V5.2h-1.724v3.944c0 .324.076.566.227.728.151.163.379.243.682.243.167 0 .322-.012.462-.039a1.91 1.91 0 0 0 .4-.118v1.754a5.16 5.16 0 0 1-.58.149c-.23.047-.496.07-.8.07m6.068-1.55c.5 0 .921-.129 1.26-.385.34-.259.51-.62.51-1.081V8.22h-.877c-.66 0-1.171.084-1.537.252-.367.169-.549.473-.549.915 0 .305.095.546.282.725.19.179.492.269.91.269m-.674 1.565a3.87 3.87 0 0 1-1.059-.141 2.498 2.498 0 0 1-.87-.438 2.089 2.089 0 0 1-.595-.76c-.147-.307-.22-.676-.22-1.104 0-.48.105-.886.315-1.22a2.36 2.36 0 0 1 .877-.815c.375-.209.826-.36 1.348-.453a9.714 9.714 0 0 1 1.724-.142h.926v-.329c0-.49-.093-.863-.275-1.119-.183-.256-.536-.383-1.058-.383-.45 0-.782.104-.995.313-.215.208-.347.49-.4.845h-2.147c.03-.48.148-.898.352-1.252.204-.355.468-.648.791-.877.324-.23.703-.4 1.137-.509.433-.11.9-.164 1.404-.164.5 0 .96.054 1.38.164.416.11.782.285 1.095.524.304.24.539.554.707.94.166.386.25.856.25 1.41v5.338h-2.21v-.986c-.241.334-.552.61-.933.83-.382.22-.896.328-1.544.328m6.818-8.36h2.274v1.566c.26-.554.6-.972 1.018-1.253.418-.282.961-.428 1.63-.438v2.112c-.847-.01-1.5.142-1.959.455-.46.314-.69.86-.69 1.644v4.102h-2.273zm6.662 8.188h2.257V3.585h-2.257zm1.113-9.3c-.367 0-.672-.117-.917-.353a1.165 1.165 0 0 1-.369-.883c0-.356.122-.65.37-.885.244-.236.549-.353.916-.353.365 0 .674.117.923.353.252.235.378.529.378.885 0 .354-.126.65-.378.883-.25.236-.558.353-.923.353zm6.302 7.907c.501 0 .921-.13 1.261-.386.34-.259.51-.62.51-1.081V8.22h-.878c-.659 0-1.171.084-1.536.252-.367.169-.55.473-.55.915 0 .305.095.546.284.725.188.179.49.269.909.269m-.675 1.565a3.87 3.87 0 0 1-1.059-.141 2.498 2.498 0 0 1-.869-.438 2.089 2.089 0 0 1-.595-.76c-.147-.307-.22-.676-.22-1.104 0-.48.105-.886.314-1.22.21-.334.501-.606.878-.815.375-.209.826-.36 1.348-.453a9.714 9.714 0 0 1 1.723-.142h.926v-.329c0-.49-.092-.863-.275-1.119-.183-.256-.536-.383-1.057-.383-.45 0-.781.104-.996.313-.215.208-.347.49-.4.845h-2.147c.03-.48.148-.898.353-1.252.203-.355.468-.648.792-.877.323-.23.702-.4 1.136-.509.432-.11.9-.164 1.403-.164.501 0 .961.054 1.38.164.416.11.782.285 1.095.524.304.24.539.554.707.94.166.386.25.856.25 1.41v5.338h-2.21v-.986c-.24.334-.552.61-.933.83-.382.22-.896.328-1.544.328m6.819-8.36h2.273v1.299c.209-.407.533-.757.971-1.05.44-.29 1.004-.437 1.694-.437.407 0 .778.063 1.113.187.334.126.626.314.878.564.24.261.428.593.563.994.136.402.204.874.204 1.417v5.214h-2.272V6.889c0-.564-.117-.978-.346-1.244-.23-.267-.595-.4-1.097-.4-.49 0-.9.15-1.222.447-.324.297-.486.749-.486 1.354v4.728h-2.273zm-90.464 27.868c.47 0 .896-.089 1.278-.267a2.82 2.82 0 0 0 .979-.75c.262-.314.465-.7.611-1.16.147-.458.22-.97.22-1.534v-.125c0-.542-.07-1.038-.211-1.488a3.488 3.488 0 0 0-.604-1.158 2.805 2.805 0 0 0-.988-.752 3.145 3.145 0 0 0-1.316-.265c-.492 0-.928.086-1.309.257a2.82 2.82 0 0 0-.98.729 3.304 3.304 0 0 0-.618 1.166 5.126 5.126 0 0 0-.212 1.526v.126c0 .574.077 1.088.234 1.542.157.453.377.837.659 1.15.271.325.6.572.988.744.386.173.81.259 1.27.259m-.048 2.02c-.878 0-1.672-.145-2.382-.431a5.09 5.09 0 0 1-1.803-1.199 5.12 5.12 0 0 1-1.16-1.8 6.196 6.196 0 0 1-.407-2.27v-.125c0-.834.143-1.602.43-2.301.288-.7.692-1.3 1.215-1.8a5.486 5.486 0 0 1 1.819-1.175c.7-.282 1.468-.422 2.304-.422.847 0 1.622.136 2.327.407a5.403 5.403 0 0 1 1.827 1.143c.501.5.896 1.094 1.183 1.784.288.688.431 1.455.431 2.302v.124c0 .836-.138 1.605-.416 2.311a5.37 5.37 0 0 1-1.167 1.822 5.272 5.272 0 0 1-1.818 1.199c-.71.286-1.505.43-2.383.43m11.819-1.769c.628 0 1.107-.206 1.442-.62.335-.414.502-1.023.502-1.83v-.127c0-.836-.182-1.459-.548-1.867s-.837-.613-1.412-.613c-.596 0-1.078.206-1.45.62-.37.414-.555 1.035-.555 1.86v.127c0 .828.179 1.442.54 1.845.36.404.854.605 1.48.605zm-4.217-6.592h2.274v1.285c.23-.396.572-.742 1.027-1.033s.984-.439 1.59-.439c.501 0 .97.091 1.404.274.432.183.81.452 1.136.806.323.356.577.793.76 1.315.181.523.274 1.123.274 1.8v.127c0 .678-.093 1.278-.273 1.8a3.93 3.93 0 0 1-.746 1.314 3.194 3.194 0 0 1-1.137.83 3.51 3.51 0 0 1-1.418.282c-.638 0-1.18-.138-1.63-.414-.45-.277-.779-.613-.987-1.011v4.04h-2.274zm15.675 3.21c-.042-.625-.214-1.087-.516-1.385-.304-.297-.726-.447-1.27-.447-.513 0-.933.16-1.263.478-.329.319-.535.77-.618 1.355zm-1.724 5.151a4.986 4.986 0 0 1-1.708-.282 3.68 3.68 0 0 1-1.348-.83 3.636 3.636 0 0 1-.902-1.298c-.214-.512-.32-1.097-.32-1.754v-.126c0-.647.106-1.232.32-1.753a3.915 3.915 0 0 1 2.233-2.2 4.457 4.457 0 0 1 1.662-.305c.534 0 1.041.08 1.521.243.48.162.903.41 1.27.744.365.333.658.764.878 1.29.22.528.328 1.157.328 1.888v.626h-5.91c.033.688.223 1.218.573 1.589.351.37.84.556 1.465.556.534 0 .934-.104 1.2-.314.267-.208.437-.484.51-.83h2.147c-.136.888-.54 1.57-1.215 2.044-.674.475-1.575.712-2.704.712zm5.612-8.36h2.274v1.3c.208-.408.532-.758.97-1.05.44-.29 1.004-.437 1.694-.437.407 0 .778.062 1.112.187.335.125.626.313.879.563.24.262.427.593.563.994.137.402.204.874.204 1.418v5.213h-2.273v-4.885c0-.564-.115-.978-.345-1.244-.23-.266-.594-.4-1.097-.4-.49 0-.899.15-1.223.447-.324.297-.484.749-.484 1.354v4.728h-2.274zm13.95 8.36c-.773 0-1.44-.086-2.006-.257-.564-.173-1.034-.421-1.411-.744a3.251 3.251 0 0 1-.861-1.16 4.296 4.296 0 0 1-.345-1.517h2.43c.031.25.083.487.156.71.073.225.193.417.36.573.167.167.384.3.651.399.267.1.609.149 1.027.149.564 0 1.013-.138 1.349-.415.333-.278.5-.636.5-1.075 0-.22-.033-.407-.101-.565a1.002 1.002 0 0 0-.338-.408 2.6 2.6 0 0 0-.659-.274 8.193 8.193 0 0 0-1.018-.212 10.685 10.685 0 0 1-1.842-.383c-.507-.162-.922-.379-1.245-.65a2.25 2.25 0 0 1-.73-.97c-.151-.385-.227-.85-.227-1.392 0-.479.096-.922.29-1.33a3.15 3.15 0 0 1 .824-1.063 3.972 3.972 0 0 1 1.285-.69 5.314 5.314 0 0 1 1.677-.248c1.264 0 2.255.276 2.97.833.716.556 1.127 1.39 1.23 2.5h-2.335c-.074-.5-.267-.873-.579-1.118-.314-.245-.743-.368-1.286-.368-.565 0-.986.117-1.262.353a1.148 1.148 0 0 0-.415.918c0 .198.028.373.086.525a.804.804 0 0 0 .32.384c.148.115.356.215.628.298.272.084.621.157 1.05.22.68.084 1.276.201 1.788.353.511.15.94.352 1.284.604.346.26.604.59.776.987.173.398.26.883.26 1.458 0 .502-.1.97-.3 1.404-.197.434-.48.808-.844 1.12-.367.325-.816.58-1.35.769-.532.189-1.127.282-1.786.282m9.091-.015c-.868 0-1.526-.217-1.975-.65-.45-.433-.674-1.078-.674-1.934v-4.148h-1.05v-1.613h1.05v-1.769h2.257v1.769h1.725v1.613h-1.725v3.944c0 .324.076.567.227.728.151.163.379.243.682.243.167 0 .322-.012.462-.038.143-.027.275-.066.4-.119v1.754c-.156.052-.35.103-.58.15-.23.046-.496.07-.799.07m3.103-8.345h2.274v1.566c.26-.554.6-.97 1.019-1.253.417-.281.96-.428 1.629-.438V27.1c-.846-.01-1.5.141-1.96.454-.458.314-.688.861-.688 1.644V33.3h-2.274zm11.945 3.21c-.042-.626-.214-1.088-.517-1.386-.304-.297-.726-.447-1.27-.447-.512 0-.933.16-1.262.478-.329.319-.536.77-.619 1.355zm-1.725 5.15a4.985 4.985 0 0 1-1.707-.282 3.672 3.672 0 0 1-1.348-.83 3.627 3.627 0 0 1-.903-1.298c-.214-.512-.32-1.097-.32-1.754v-.126c0-.647.106-1.232.32-1.753.214-.522.514-.971.903-1.346.375-.366.82-.65 1.331-.854a4.457 4.457 0 0 1 1.662-.305c.533 0 1.04.08 1.52.243.48.162.904.41 1.27.744.365.333.658.764.879 1.29.218.528.328 1.157.328 1.888v.626h-5.91c.032.688.223 1.218.573 1.589.35.37.838.556 1.465.556.533 0 .933-.104 1.199-.314.267-.208.437-.484.51-.83h2.148c-.137.888-.542 1.57-1.215 2.044-.675.475-1.575.712-2.705.712zm11.114-5.15c-.042-.626-.213-1.088-.516-1.386-.305-.297-.727-.447-1.27-.447-.513 0-.934.16-1.262.478-.33.319-.536.77-.62 1.355zm-1.725 5.15a4.985 4.985 0 0 1-1.707-.282 3.672 3.672 0 0 1-1.348-.83 3.638 3.638 0 0 1-.902-1.298c-.215-.512-.32-1.097-.32-1.754v-.126c0-.647.105-1.232.32-1.753a3.922 3.922 0 0 1 2.234-2.2 4.457 4.457 0 0 1 1.662-.305c.533 0 1.04.08 1.52.243.48.162.903.41 1.27.744.365.333.658.764.878 1.29.218.528.328 1.157.328 1.888v.626h-5.909c.031.688.222 1.218.572 1.589.35.37.84.556 1.465.556.534 0 .934-.104 1.199-.314.267-.208.437-.484.51-.83h2.148c-.137.888-.54 1.57-1.215 2.044-.674.475-1.575.712-2.705.712zm8.606-.015c-.867 0-1.525-.217-1.974-.65-.45-.433-.676-1.078-.676-1.934v-4.148h-1.049v-1.613h1.05v-1.769h2.258v1.769h1.724v1.613h-1.724v3.944c0 .324.075.567.227.728.15.163.378.243.682.243.167 0 .32-.012.461-.038.143-.027.276-.066.401-.119v1.754a5.14 5.14 0 0 1-.58.15c-.231.046-.496.07-.8.07m3.308-11.351h3.353l2.62 6.967 2.585-6.967h3.291V33.3h-2.524v-7.86l-3.104 7.86h-.83l-3.117-7.86v7.86h-2.274zm17.069 9.801c.502 0 .922-.13 1.261-.386.34-.259.51-.619.51-1.08v-.695h-.878c-.658 0-1.17.085-1.535.252-.367.169-.55.473-.55.915 0 .305.096.547.283.725.189.179.492.269.91.269m-.674 1.566a3.86 3.86 0 0 1-1.06-.142 2.498 2.498 0 0 1-.869-.438 2.089 2.089 0 0 1-.595-.76c-.147-.307-.22-.675-.22-1.103 0-.48.105-.887.314-1.221.209-.334.501-.605.877-.814.376-.21.827-.36 1.348-.454a9.725 9.725 0 0 1 1.725-.141h.925v-.33c0-.49-.092-.863-.275-1.119-.182-.255-.536-.383-1.058-.383-.449 0-.781.105-.995.314-.215.208-.347.49-.4.844h-2.147c.03-.48.148-.897.352-1.251a2.73 2.73 0 0 1 .792-.878c.324-.229.703-.4 1.136-.508.433-.11.901-.164 1.403-.164s.962.054 1.38.164c.417.109.784.284 1.097.523.302.241.538.555.706.94.165.387.25.856.25 1.41V33.3h-2.21v-.986c-.24.334-.552.61-.933.83-.381.22-.895.329-1.543.329m11.035-1.77c.628 0 1.108-.206 1.443-.62.334-.414.5-1.023.5-1.83v-.127c0-.836-.182-1.459-.547-1.867-.366-.408-.837-.613-1.412-.613-.595 0-1.078.206-1.45.62-.37.414-.555 1.035-.555 1.86v.127c0 .828.179 1.442.54 1.845.36.404.854.605 1.48.605zm-4.216-6.592h2.273v1.285c.23-.396.572-.742 1.026-1.033.455-.292.985-.439 1.591-.439.502 0 .97.091 1.404.274.432.183.811.452 1.136.806.323.356.576.793.76 1.315.182.523.274 1.123.274 1.8v.127c0 .678-.092 1.278-.274 1.8-.184.522-.431.96-.744 1.314a3.194 3.194 0 0 1-1.138.83 3.51 3.51 0 0 1-1.418.282c-.637 0-1.182-.138-1.63-.414-.45-.277-.779-.613-.987-1.011v4.04h-2.273zM106.864 45.606h-3.026v-1.973h8.606v1.973h-3.026v9.222h-2.554zm11.474 4.244c-.042-.627-.215-1.089-.518-1.386-.303-.297-.725-.446-1.269-.446-.513 0-.933.16-1.262.477-.33.318-.536.77-.62 1.354zM116.613 55a5 5 0 0 1-1.707-.282 3.707 3.707 0 0 1-1.35-.83 3.631 3.631 0 0 1-.9-1.299c-.215-.51-.322-1.096-.322-1.754v-.125c0-.647.107-1.231.321-1.754a3.924 3.924 0 0 1 2.233-2.199 4.462 4.462 0 0 1 1.663-.305c.533 0 1.04.08 1.52.244.48.16.904.409 1.27.742.365.334.658.765.878 1.29.219.529.328 1.158.328 1.89v.625h-5.908c.03.688.22 1.219.571 1.589s.84.555 1.465.555c.534 0 .933-.103 1.2-.312.267-.21.436-.486.51-.83h2.147c-.136.887-.541 1.568-1.215 2.043-.674.474-1.575.712-2.704.712zm8.575-1.565c.501 0 .922-.13 1.261-.387.34-.257.51-.618.51-1.08v-.693h-.878c-.659 0-1.17.083-1.536.252-.366.168-.549.473-.549.914 0 .305.095.547.283.726.188.177.49.268.91.268M124.513 55c-.377 0-.73-.047-1.059-.14a2.498 2.498 0 0 1-.87-.44 2.093 2.093 0 0 1-.595-.758c-.147-.308-.22-.676-.22-1.104 0-.48.105-.887.314-1.222.21-.333.501-.604.878-.814a4.38 4.38 0 0 1 1.348-.454 9.805 9.805 0 0 1 1.723-.14h.927v-.33c0-.49-.093-.863-.276-1.118-.182-.256-.536-.384-1.057-.384-.45 0-.781.104-.996.314-.215.207-.347.49-.4.843h-2.147c.03-.48.148-.896.353-1.25.203-.356.468-.649.792-.878a3.34 3.34 0 0 1 1.136-.508c.432-.11.9-.165 1.403-.165.501 0 .961.054 1.38.165.416.11.783.283 1.095.523.304.241.54.554.707.94.166.387.25.856.25 1.409v5.34h-2.21v-.988a2.94 2.94 0 0 1-.933.83c-.381.22-.895.329-1.543.329m6.818-8.36h2.273v1.252c.209-.386.524-.722.948-1.01.423-.286.943-.43 1.56-.43.544 0 1.011.115 1.402.345.393.229.687.588.887 1.08.334-.501.747-.864 1.238-1.089a3.62 3.62 0 0 1 1.52-.336c.377 0 .73.06 1.059.18.329.12.618.305.87.556.24.261.427.59.564.986.136.396.203.867.203 1.41v5.244h-2.257v-5.006c0-.533-.113-.92-.338-1.162-.225-.24-.54-.36-.948-.36a1.62 1.62 0 0 0-1.121.415c-.308.277-.46.699-.46 1.263v4.85h-2.258v-5.006c0-.533-.114-.92-.346-1.162-.23-.24-.543-.36-.94-.36a1.62 1.62 0 0 0-1.121.415c-.307.277-.462.699-.462 1.263v4.85h-2.273z"/></g></svg>