<svg width="561" height="542" xmlns="http://www.w3.org/2000/svg"><g id="Hi-Fi" stroke="none" stroke-width="1" fill="none" fill-rule="evenodd"><g id="Extra-large:-Desktops---About---22-Aug-Copy" transform="translate(-162 -5342)"><g id="Group-12" transform="translate(165 5345)"><ellipse id="Oval-Copy-3" stroke="#071D49" stroke-width="5" fill-rule="nonzero" transform="matrix(-1 0 0 1 679 0)" cx="339.5" cy="321" rx="215.5" ry="215"/><ellipse id="Oval" stroke="#071D49" stroke-width="5" fill-rule="nonzero" transform="matrix(-1 0 0 1 350 0)" cx="175" cy="176" rx="175" ry="176"/><ellipse id="Combined-Shape" stroke="#071D49" stroke-width="5" fill-rule="nonzero" cx="339.5" cy="321" rx="215.5" ry="215"/><path d="M124.31 344.687a216.1 216.1 0 0 1-1.31-23.794c0-117.48 94.786-212.946 212.455-214.893C344.811 127.502 350 151.242 350 176.197 350 273.29 271.447 352 174.548 352c-17.46 0-34.323-2.555-50.238-7.313z" id="Combined-Shape" stroke="#071D49" stroke-width="5" fill="#FFCE38" fill-rule="nonzero"/><path id="+" fill="#071D49" d="M241.832 241.489H237v-3.012h4.832V233h3.233v5.477H250v3.012h-4.935V247h-3.233z"/><path d="M193.71 222.575c1.257 0 2.148-.11 2.671-.332.524-.221.786-.646.786-1.275 0-.42-.245-1.608-.733-3.565L192 200.315h4.608l2.619 13.349 2.269-13.35h4.573l-4.713 21.003c-.396 1.7-1.146 2.907-2.252 3.617-1.105.71-2.6 1.066-4.486 1.066h-.907v-3.425zm20.668-1.747c-2.165 0-3.782-.6-4.853-1.8-1.07-1.2-1.606-2.941-1.606-5.224v-6.78c0-2.283.536-4.024 1.606-5.224 1.07-1.2 2.688-1.8 4.853-1.8 2.164 0 3.788.6 4.87 1.8 1.082 1.2 1.623 2.941 1.623 5.224v6.78c0 2.283-.54 4.024-1.623 5.224-1.082 1.2-2.706 1.8-4.87 1.8zm.035-3.285c.721 0 1.198-.285 1.431-.856.233-.571.35-1.415.35-2.534v-7.443c0-1.119-.117-1.969-.35-2.551-.233-.583-.71-.874-1.431-.874-.745 0-1.234.291-1.467.874-.232.582-.349 1.432-.349 2.55v7.444c0 1.119.117 1.963.35 2.534.232.57.721.856 1.466.856zm12.987 3.285c-1.14 0-1.99-.42-2.549-1.258-.559-.839-.838-1.899-.838-3.18v-16.075h4.713v15.201c0 .63.105 1.107.314 1.433.21.326.57.49 1.083.49.535 0 1.245-.315 2.13-.944v-16.18H237v20.198h-4.748v-1.922c-1.56 1.491-3.177 2.237-4.852 2.237z" id="you" fill="#071D49"/><path d="M268.39 272c-1.142 0-1.992-.43-2.551-1.288-.56-.859-.839-1.944-.839-3.255V251h4.718v15.562c0 .644.105 1.133.314 1.467.21.334.571.5 1.084.5.535 0 1.246-.321 2.131-.965V251H278v20.678h-4.753v-1.968c-1.56 1.527-3.18 2.29-4.857 2.29zm18.913 0c-1.64 0-2.988-.458-4.045-1.374-1.056-.916-1.809-2.255-2.258-4.017l3.404-1.374c.517 2.278 1.461 3.418 2.832 3.418.517 0 .916-.141 1.197-.423.28-.282.42-.67.42-1.163 0-.54-.156-1.04-.471-1.497-.315-.458-.876-1.04-1.685-1.744l-2.326-2.115c-.989-.845-1.72-1.667-2.191-2.466-.472-.799-.708-1.774-.708-2.925 0-1.597.522-2.883 1.567-3.858 1.045-.975 2.365-1.462 3.961-1.462 1.528 0 2.775.476 3.742 1.427.966.951 1.595 2.237 1.887 3.858l-3 1.34c-.18-.94-.477-1.71-.893-2.309-.416-.599-.95-.898-1.601-.898-.472 0-.848.152-1.13.458-.28.305-.42.693-.42 1.163 0 .375.157.775.471 1.198.315.422.787.916 1.416 1.48l2.36 2.254c1.01.917 1.792 1.792 2.342 2.625.55.834.826 1.839.826 3.013 0 1.715-.534 3.042-1.601 3.982-1.068.94-2.433 1.409-4.096 1.409z" id="us" fill="#071D49"/></g></g></g></svg>