<svg height="55" viewBox="0 0 225 55" width="225" xmlns="http://www.w3.org/2000/svg"><g fill="#d73f3f" fill-rule="evenodd"><g><path d="m42.4771704 23.8046417c0-.5545834.1183918-1.0495834.3551756-1.47675.2349482-.429.5469888-.77825.9342863-1.0569167.3854619-.27775.8195655-.4885833 1.3023106-.6306667.4809097-.1411666.9654904-.2126666 1.4546599-.2126666.4873341 0 .9737503.0715 1.4564955.2126666.4799919.1420834.9140954.3529167 1.2995573.6306667.3882153.2786667.6993381.6279167.9361219 1.0569167.2367837.4271666.3542578.9221666.3542578 1.47675v7.30125c0 .5665-.1174741 1.0633333-.3542578 1.4840833-.2367838.4225833-.5479066.77-.9361219 1.0486667-.3854619.2795833-.8195654.4913333-1.2995573.6315833-.4827452.1411667-.9691614.21175-1.4564955.21175-.4891695 0-.9737502-.0705833-1.4546599-.21175-.4827451-.14025-.9168487-.352-1.3023106-.6315833-.3872975-.2786667-.6993381-.6260834-.9342863-1.0486667-.2367838-.42075-.3551756-.9175833-.3551756-1.4840833zm2.322867 7.3049166c0 .47575.2652345.8305.5901238 1.056.3230538.2273334.7057625.3474167 1.1472081.3474167.4396102 0 .8241544-.1200833 1.1481259-.3474167.3221361-.2255.5066071-.58025.5066071-1.056v-7.30125c0-.4775833-.184471-.8314166-.5066071-1.0569166-.3239715-.2264167-.7085157-.3785834-1.1481259-.3785834-.4414456 0-.8241543.1521667-1.1472081.3785834-.3248893.2255-.5901238.5793333-.5901238 1.0569166z"/><path d="m38.2926599 20.4130208v5.9296875h-3.7020406v-5.9296875h-2.0248223v14.0765625h2.0248223v-5.9319791h3.7020406v5.9319791h2.1785482v-14.0765625z"/><path d="m60.149269 20.4130208h-8.0361929v2.0705209h2.9701219l-.0344163 12.0060416h2.1361015v-12.0060416h2.9643858z"/><path d="m75.0543017 32.9619583h16.354599l-9.778802-10.9981666-9.735667-10.9981667-9.7375026-10.96516667h-48.9187898l9.735667 10.96516667h-16.39130965l9.73750255 10.9981667.0752568.07425h-16.39498067l9.77604873 10.9981666 9.74117364 10.9981667 9.7365847 10.9660833h48.9187899l-9.7411736-10.9660833-.0715858-.10725h16.3940629zm-29.3501726 12.8131667c-10.922339 0-19.7760325-8.1821667-19.7760325-18.27375 0-10.09525 8.8536935-18.27741667 19.7760325-18.27741667 10.9232569 0 19.7778681 8.18216667 19.7778681 18.27741667 0 10.0915833-8.8546112 18.27375-19.7778681 18.27375z"/></g><g transform="translate(102.101523)"><path d="m8.62585787.57864583v4.57302084h-4.49820305v-4.57302084h-2.53877157v11.19593747h2.53877157v-4.61885413h4.49820305v4.61885413h2.53991873v-11.19593747z"/><path d="m16.197202 11.945725c-.3983106 0-.766335-.0595833-1.1049908-.1796667-.3395736-.1200833-.6350944-.3061666-.8865625-.5564166-.2496325-.25025-.4460345-.5710834-.5873705-.9625-.1413361-.3914167-.2120041-.85250003-.2120041-1.38508337v-5.27725h2.2577056v4.96375c0 .54266667.1202274.95241667.3606822 1.22925.2404549.27683337.5956305.41433337 1.0664447.41433337.4799919 0 .8838091-.1485 1.2132873-.4464167.3294782-.297.4937584-.748.4937584-1.35391667v-4.807h2.2586233v8.18949997h-2.2586233v-1.28425c-.208333.418-.5240447.7645-.9480528 1.0404167-.4221726.2768333-.9737503.41525-1.6528975.41525m7.0534944-8.36055h2.2742254v1.25308333c.2074153-.38591666.5240447-.72233333.9471351-1.01016666.4230903-.28691667.9425461-.42991667 1.5592852-.42991667.5442356 0 1.0122965.11458333 1.4023472.34375.3928041.22916667.6874071.58941667.8865625 1.08075.334067-.50141667.7479797-.8635 1.238067-1.08808333.4919228-.22458334.9985299-.33641667 1.5207391-.33641667.3762842 0 .7296243.05958333 1.0581847.17966667.3294782.12008333.6194924.30433333.8700427.55641666.239537.26033334.4285969.58941667.5644264.98541667.1358294.39691667.2037441.86716667.2037441 1.40891667v5.24516663h-2.2577055v-5.00591663c0-.5335-.1128853-.92033334-.3368204-1.16141667-.2248527-.24108333-.5414822-.36116667-.9480527-.36116667-.4386924 0-.8131412.13841667-1.1215107.41525-.3083695.27775-.4616366.6985-.4616366 1.26408334v4.84916663h-2.2567878v-5.00591663c0-.5335-.1147208-.92033334-.3450802-1.16141667s-.5442355-.36116667-.9416284-.36116667c-.4377746 0-.8122233.13841667-1.1205929.41525-.3074518.27775-.4607188.6985-.4607188 1.26408334v4.84916663h-2.2742254zm17.5397109 6.7953417c.5020183 0 .9214376-.12925 1.2610112-.3859167.3395736-.2585.5102781-.61875.5102781-1.08075v-.69391667h-.8783025c-.6580386 0-1.1701523.08433334-1.5354233.25208334-.3671066.16866666-.5497422.473-.5497422.91483333 0 .30525.0954477.54633333.2826721.7250833.1881421.17875.4919229.2685834.9095066.2685834m-.6736406 1.5656666c-.377202 0-.7296244-.0476666-1.0591025-.1411666-.3285604-.0944167-.6194924-.2401667-.8691249-.4381667-.2505503-.198-.4497056-.451-.5956305-.7599167-.1477604-.3070833-.2202639-.6755833-.2202639-1.10366663 0-.47941667.1055431-.88641667.3138761-1.221.2092508-.33366667.5020183-.605.8773848-.814.3762843-.209.8269076-.35933334 1.348199-.45375.5222091-.09441667 1.0976487-.14116667 1.7244832-.14116667h.9251086v-.32908333c0-.49041667-.0917766-.8635-.2744121-1.11925-.1826356-.25575-.5359757-.38316667-1.0581848-.38316667-.4487878 0-.7810193.1045-.9948589.3135-.2147573.20808333-.3469157.49041667-.4001462.84425h-2.1475736c.0312041-.47941667.1486782-.89741667.3524224-1.25125.2046619-.35566667.4680609-.64808333.7920324-.87725.3239716-.22916667.7030092-.39966667 1.136195-.50875.4331857-.11.9012467-.16408333 1.4032649-.16408333.5020183 0 .9618193.05408333 1.3794031.16408333.4175837.10908333.7837726.28416667 1.0967309.52341667.302863.24108333.538729.55458333.7066802.93958333.165198.38683333.2496325.85616667.2496325 1.40983333v5.33866667h-2.2099817v-.9863333c-.2413726.3345833-.5524954.6105-.9324508.8295833-.3817908.22-.8966578.3290833-1.5436832.3290833m6.8192804-8.3610083h2.2733076v1.29983333c.208333-.407.5332224-.75716666.9700792-1.04958333.4396102-.29058333 1.0040366-.43725 1.694197-.43725.4074883 0 .778266.06233333 1.112333.187.3349847.12558333.6268345.3135.8783025.56375.2404548.26125.4276792.59308333.5635086.99366667.1367472.40241666.2037442.8745.2037442 1.41716666v5.21399997h-2.2723899v-4.88491663c0-.56375-.1156385-.97808334-.3450802-1.24391667-.2294416-.26675-.5947127-.39966667-1.0976487-.39966667-.4900873 0-.8984934.14941667-1.222465.44641667-.3239715.297-.4845807.74891667-.4845807 1.35391667v4.72816663h-2.2733076zm9.8893011 8.1884917h2.2577056v-8.18858337h-2.2577056zm1.1141686-9.29958337c-.3671066 0-.6727229-.11733333-.9177665-.35291666-.2459615-.23375-.3680244-.52891667-.3680244-.88366667 0-.35566667.1220629-.64991667.3680244-.88458333.2450436-.23558334.5506599-.35291667.9177665-.35291667.3643533 0 .6727228.11733333.9241908.35291667.2505503.23466666.3762843.52891666.3762843.88458333 0 .35475-.125734.64991667-.3762843.88366667-.251468.23558333-.5598375.35291666-.9241908.35291666zm6.4107825 9.45642497c-.8672894 0-1.5262457-.21725-1.9741157-.6499166-.4506234-.4326667-.6754762-1.078-.6754762-1.9341667v-4.14791667h-1.0490071v-1.61333333h1.0490071v-1.76825h2.2577056v1.76825h1.7244832v1.61333333h-1.7244832v3.94441667c0 .32358333.0761746.5665.2266883.72783333.1514315.16316667.3790376.24291667.6819005.24291667.1670335 0 .3221361-.0119167.4625543-.0385.1422538-.0265833.2744122-.0650833.4001462-.11825v1.7535833c-.156938.05225-.3505868.1026667-.5800284.1494167-.2303594.04675-.4965117.0705833-.7993746.0705833m6.0668036-1.5499916c.5011006 0 .9214376-.12925 1.2610112-.3859167.3395736-.2585.5102782-.61875.5102782-1.08075v-.69391667h-.8783026c-.6589563 0-1.17107.08433334-1.5363411.25208334-.3671066.16866666-.5488243.473-.5488243.91483333 0 .30525.0945299.54633333.2817543.7250833.1890599.17875.4919228.2685834.9104243.2685834m-.6745583 1.5656666c-.3762843 0-.7287066-.0476666-1.0591026-.1411666-.3285604-.0944167-.6185746-.2401667-.8691248-.4381667-.2505503-.198-.4497056-.451-.5956305-.7599167-.1468426-.3070833-.2193462-.6755833-.2193462-1.10366663 0-.47941667.1046254-.88641667.3138761-1.221.208333-.33366667.5011006-.605.8773848-.814.3753665-.209.8259899-.35933334 1.348199-.45375.5222091-.09441667 1.096731-.14116667 1.7235655-.14116667h.9260264v-.32908333c0-.49041667-.0926944-.8635-.27533-1.11925-.1826355-.25575-.5359756-.38316667-1.057267-.38316667-.4497056 0-.781937.1045-.9957766.3135-.2147574.20808333-.3469158.49041667-.4001462.84425h-2.1466559c.0302863-.47941667.1477605-.89741667.3524224-1.25125.2037441-.35566667.4680609-.64808333.7911147-.87725.3239716-.22916667.7030091-.39966667 1.1371127-.50875.432268-.11.9003289-.16408333 1.403265-.16408333.5011005 0 .9609015.05408333 1.379403.16408333.416666.10908333.7828548.28416667 1.0958132.52341667.3037807.24108333.5387289.55458333.7066802.93958333.1661158.38683333.2505503.85616667.2505503 1.40983333v5.33866667h-2.2099818v-.9863333c-.2413725.3345833-.5524954.6105-.9333685.8295833-.3817908.22-.8957401.3290833-1.5436832.3290833m6.8183626-8.3610083h2.2733076v1.56658333c.2606457-.55366666.6011371-.97166666 1.0187208-1.25308333.4175838-.28141667.9609016-.42808333 1.6290356-.43816667v2.11291667c-.8461807-.01008333-1.4987127.14116667-1.9585137.45466667-.4598011.3135-.6892427.86075-.6892427 1.64358333v4.1020833h-2.2733076zm6.661241 8.1884917h2.2577056v-8.18858337h-2.2577056zm1.1132508-9.29958337c-.3671066 0-.6718051-.11733333-.9168487-.35291666-.2468792-.23375-.3689422-.52891667-.3689422-.88366667 0-.35566667.122063-.64991667.3689422-.88458333.2450436-.23558334.5497421-.35291667.9168487-.35291667.3652711 0 .6736406.11733333.9232731.35291667.251468.23466666.3781198.52891666.3781198.88458333 0 .35475-.1266518.64991667-.3781198.88366667-.2496325.23558333-.558002.35291666-.9232731.35291666zm6.302119 7.90643337c.5011005 0 .9214375-.12925 1.2610111-.3859167.3395736-.2585.5102782-.61875.5102782-1.08075v-.69391667h-.8783025c-.6589564 0-1.1710701.08433334-1.5363411.25208334-.3661889.16866666-.5488244.473-.5488244.91483333 0 .30525.0945299.54633333.2826721.7250833.1881421.17875.491005.2685834.9095066.2685834m-.6745584 1.5656666c-.3762843 0-.7287066-.0476666-1.0591025-.1411666-.3285605-.0944167-.6185747-.2401667-.8691249-.4381667-.2505503-.198-.4497056-.451-.5956305-.7599167-.1468426-.3070833-.2193462-.6755833-.2193462-1.10366663 0-.47941667.1046254-.88641667.3138762-1.221.2092507-.33366667.5011005-.605.8773847-.814.3753665-.209.8259899-.35933334 1.348199-.45375.5222092-.09441667 1.096731-.14116667 1.7235655-.14116667h.9260264v-.32908333c0-.49041667-.0926944-.8635-.2753299-1.11925-.1826356-.25575-.5359757-.38316667-1.057267-.38316667-.4497056 0-.7810193.1045-.9957767.3135-.2147574.20808333-.3469157.49041667-.4001462.84425h-2.1466558c.0302863-.47941667.1477604-.89741667.3524223-1.25125.2037442-.35566667.4680609-.64808333.7920325-.87725.3230538-.22916667.7020914-.39966667 1.1361949-.50875.432268-.11.900329-.16408333 1.403265-.16408333.5011005 0 .9609015.05408333 1.379403.16408333.416666.10908333.7828549.28416667 1.0958132.52341667.3037808.24108333.538729.55458333.7066802.93958333.1661158.38683333.2505503.85616667.2505503 1.40983333v5.33866667h-2.2099817v-.9863333c-.2413726.3345833-.5524955.6105-.9333686.8295833-.3817908.22-.8957401.3290833-1.5436832.3290833m6.8184544-8.3610083h2.2733076v1.29983333c.208333-.407.5332224-.75716666.9709974-1.04958333.43961-.29058333 1.004036-.43725 1.693279-.43725.407488 0 .778266.06233333 1.113251.187.334067.12558333.625916.3135.878302.56375.240455.26125.427679.59308333.562591.99366667.136747.40241666.204662.8745.204662 1.41716666v5.21399997h-2.27239v-4.88491663c0-.56375-.116556-.97808334-.345998-1.24391667-.229442-.26675-.594713-.39966667-1.096731-.39966667-.491005 0-.8994111.14941667-1.2224649.44641667-.3239716.297-.4854985.74891667-.4854985 1.35391667v4.72816663h-2.2733076zm-90.46369298 27.868775c.46989644 0 .8957401-.0889167 1.27753096-.26675.38179086-.1769167.70759797-.4280833.97925685-.75075.26156345-.3135.46530762-.7003333.61123249-1.1595833.14684264-.4583334.21934619-.9698334.21934619-1.5335834v-.1255833c0-.54175-.06975025-1.0376667-.21108629-1.48775-.14133604-.4473333-.34232691-.8350833-.60389036-1.15775-.27165888-.3235833-.60113705-.57475-.98751675-.7525833-.38637969-.176-.82598985-.2649167-1.31607716-.2649167-.49192284 0-.92786192.0861667-1.30873502.2575833-.38179086.1723334-.70759797.41525-.98017462.72875-.27165888.3235834-.47815635.7113334-.61857462 1.166-.14133604.4546667-.21200406.9625-.21200406 1.52625v.1255834c0 .5738333.07709239 1.0880833.23403046 1.5418333.15785583.45375.37720203.8369167.65895634 1.1504167.27165888.3245.60021929.572.98843452.7434166.38637969.17325.80947005.2594167 1.26927107.2594167m-.0468061 2.0194167c-.87830253 0-1.67217055-.1439167-2.38252182-.4308334-.71126904-.2869166-1.31240609-.6856666-1.8024934-1.1980833-.50201828-.5005-.88839797-1.1-1.16005686-1.8003333-.27257665-.6994167-.40748832-1.4556667-.40748832-2.2705834v-.1246666c0-.8341667.14317157-1.6014167.42951472-2.3008334.28909645-.6994166.6929137-1.2998333 1.21604061-1.8003333.51119594-.5014167 1.11783959-.8928333 1.81809543-1.17425.70025584-.2823333 1.4684264-.4225833 2.30451167-.4225833.84709848 0 1.62169341.1356666 2.32745584.407.70576244.2713333 1.31424163.65175 1.82635531 1.1430833.5011005.5005.8957401 1.0945 1.183001 1.7838333.2881787.6884167.4313503 1.4556667.4313503 2.30175v.1246667c0 .836-.1385828 1.6050833-.4157482 2.3109167-.2762477.704-.6662985 1.31175-1.167399 1.8223333-.50201829.5124167-1.10774418.9111667-1.81809545 1.1980833-.71035127.2869167-1.50513705.4308334-2.38252183.4308334m11.81826278-1.7691667c.62867 0 1.1077441-.20625 1.4427289-.6196667.3349848-.4143333.5011005-1.0239166.5011005-1.8305833v-.1265c0-.8369167-.1817178-1.4593333-.5479066-1.86725s-.837003-.61325-1.4115249-.61325c-.5956304 0-1.0783756.20625-1.450071.6205833-.3707777.4134167-.5552488 1.034-.5552488 1.8599167v.1265c0 .82775.1789645 1.4419167.5405645 1.84525.3597645.4033333.8535228.605 1.4803574.605zm-4.2162193-6.59175h2.2733076v1.28425c.2294416-.396.5726863-.7415833 1.0269807-1.0330833s.9838457-.4381667 1.5904893-.4381667c.5011005 0 .9691615.09075 1.403265.2731667.432268.1833333.8113056.4519166 1.1361949.8066666.3230538.3556667.5772752.7929167.7608285 1.3145.1808.5234167.2734944 1.1229167.2734944 1.8003334v.1265c0 .6783333-.0926944 1.27875-.2734944 1.8003333-.1835533.5215833-.4322681.9606667-.7452264 1.3145-.3239716.36575-.7030092.6425833-1.1371127.8295833-.4331858.1888334-.9058356.2823334-1.4179493.2823334-.6378477 0-1.1811654-.1384167-1.6299533-.4143334-.4497055-.2768333-.7791837-.61325-.9875167-1.0110833v4.03975h-2.2733076zm15.6748093 3.2101667c-.0422172-.6260834-.2138396-1.0880834-.5167025-1.386-.3037807-.297-.7259533-.4464167-1.2701889-.4464167-.5121137 0-.9324507.1604167-1.2619289.4775833-.3294782.319-.5350579.77-.6185746 1.3548334zm-1.7244832 5.15075c-.6167391 0-1.1857543-.0935-1.7079635-.2823334-.5240447-.187-.9719147-.4638333-1.348199-.8295833-.3872974-.3538333-.6874071-.7883333-.9012467-1.2989167-.2147573-.5115-.3212182-1.0963333-.3212182-1.7535833v-.1255833c0-.6471667.1064609-1.232.3212182-1.7535834.2138396-.5215833.5139493-.97075.9012467-1.3456666.3762843-.36575.8204833-.6499167 1.3316792-.8543334.5121137-.2035 1.0655269-.3043333 1.6620751-.3043333.5332224 0 1.0407473.07975 1.5207391.2429167.4790741.1613333.9030823.4088333 1.2692711.7434166.3652711.33275.6589563.7645.8783025 1.2906667.2193462.528.3285604 1.1568333.3285604 1.8874167v.6260833h-5.9094984c.0321218.6884167.2220995 1.21825.5726863 1.5885833.3505868.37125.8388385.5564167 1.4647553.5564167.5341401 0 .9333685-.1035833 1.1995208-.3135.2670701-.2080833.4368569-.4849167.5102782-.8295833h2.1466558c-.1358294.8873333-.5405645 1.5684166-1.2142051 2.04325-.6745583.4748333-1.575805.71225-2.7046578.71225zm5.6125092-8.360825h2.2733076v1.2998333c.208333-.407.5323046-.7571667.9700792-1.0495833.4396102-.2905834 1.0040366-.43725 1.694197-.43725.4074883 0 .778266.0623333 1.112333.187.3349847.1255833.6259167.3135.8783025.56375.2404548.26125.4276792.5930833.5635086.9936666.1367472.4024167.2037442.8745.2037442 1.4180834v5.2130833h-2.2723899v-4.8849167c0-.56375-.1156385-.9780833-.3450802-1.2439166-.2294416-.26675-.5947127-.3996667-1.0976487-.3996667-.4900873 0-.8984934.1494167-1.222465.4464167-.3239715.297-.4845807.7489166-.4845807 1.3539166v4.7281667h-2.2733076zm13.9502343 8.36055c-.7736771 0-1.4408934-.0861667-2.0062375-.2575834-.5644264-.1723333-1.0343229-.42075-1.4115249-.7434166-.3753665-.3245-.6626274-.7104167-.860865-1.1595834-.1991553-.44825-.3138761-.95425-.3450802-1.518h2.4293279c.0321219.25025.0835168.4876667.1569381.7113334.0725035.2245833.192731.4161666.3606822.572.1661158.1668333.3836264.3006666.6506965.39875.2661523.0999166.6084792.1494166 1.0260629.1494166.5644264 0 1.0132142-.1384166 1.3491168-.41525.3331492-.27775.5011005-.6361666.5011005-1.07525 0-.22-.0339574-.407-.1018721-.5646666-.0679147-.15675-.1808-.2924167-.3377381-.4079167-.1670335-.1045-.3863797-.1961667-.6589563-.2740833-.2716589-.0788334-.6112325-.1494167-1.0178031-.21175-.7204467-.0935-1.3353502-.2218334-1.8419573-.3831667-.5075249-.16225-.9223554-.3785833-1.2454092-.6499167-.3359025-.26125-.5781929-.5839166-.7296243-.9698333-.1514315-.385-.2276061-.84975-.2276061-1.3924167 0-.4785.0963655-.9221666.2900142-1.3291666.192731-.407.4680609-.76175.8241543-1.0633334.3542579-.2924166.7828548-.5215833 1.2848731-.6893333.5011005-.1659167 1.0600203-.2493333 1.6767594-.2493333 1.2646822 0 2.2549523.2768333 2.9698924.83325.7167756.5564166 1.1270172 1.3896666 1.2307249 2.5006666h-2.3357158c-.0734213-.5005-.2661523-.8735833-.5781929-1.1183333-.3147939-.2456667-.7433908-.3685-1.2867086-.3685-.5644264 0-.9856812.1173333-1.2619289.3529167-.2771655.2355833-.4148305.54175-.4148305.9185 0 .198.0284508.3730833.0862701.52525.0569015.15125.1633624.2786666.3203005.3840833.1477604.1145833.3551756.2145.6277522.2979167.2716589.0834166.621328.15675 1.0499249.22.6791472.0834166 1.2756955.20075 1.7878092.3529166.5111959.1503334.9397929.352 1.2839553.6040834.345998.2603333.6038903.5903333.7764304.9863333.1725401.3978333.2588102.8836667.2588102 1.4584167 0 .5014166-.0991188.9698333-.2982741 1.4034166-.1982376.4345-.4809097.8085-.845263 1.1210834-.3661888.3245-.8158944.58025-1.3491167.7681666-.5323046.1888334-1.127935.2823334-1.7868914.2823334m9.0915785-.0152167c-.8682071 0-1.5262457-.21725-1.9750335-.6499167-.4497056-.4326666-.6745584-1.078-.6745584-1.9341666v-4.1479167h-1.0490071v-1.6133333h1.0490071v-1.76825h2.2577056v1.76825h1.7244833v1.6133333h-1.7244833v3.9444167c0 .3235833.0752569.5665.2266883.7278333.1514315.1631667.3790376.2429167.6819005.2429167.1670335 0 .3221361-.0119167.4625544-.0385.1422538-.0265834.2744121-.0650834.4001461-.11825v1.7535833c-.156938.05225-.3505868.1026667-.5800284.1494167-.2303594.04675-.4965117.0705833-.7993746.0705833m3.1028767-8.3453333h2.2742254v1.5665833c.2597279-.5536667.6002193-.97075 1.0187208-1.2530833.416666-.2814167.9599838-.4280834 1.6290356-.4381667v2.1129167c-.8461807-.0100834-1.4996305.1411666-1.9594315.4546666-.4588832.3135-.6883249.86075-.6883249 1.6435834v4.1020833h-2.2742254zm11.9452817 3.210075c-.0422173-.6260834-.2138396-1.0880834-.5176203-1.386-.3037807-.297-.7259533-.4464167-1.2692711-.4464167-.5121137 0-.9333685.1604167-1.2619289.4775833-.3294782.319-.5359757.77-.6194924 1.3548334zm-1.725401 5.15075c-.6158214 0-1.1848366-.0935-1.7070457-.2823334-.5240447-.187-.9728325-.4638333-1.348199-.8295833-.3882152-.3538333-.6883249-.7883333-.9021645-1.2989167-.2147573-.5115-.3212183-1.0963333-.3212183-1.7535833v-.1255833c0-.6471667.106461-1.232.3212183-1.7535834.2138396-.5215833.5139493-.97075.9021645-1.3456666.3753665-.36575.8204832-.6499167 1.3316792-.8543334.5121137-.2035 1.0655269-.3043333 1.6620751-.3043333.5323046 0 1.0398294.07975 1.5198213.2429167.4799919.1613333.904.4088333 1.2701889.7434166.3643533.33275.6580385.7645.8783025 1.2906667.2184284.528.3285604 1.1568333.3285604 1.8874167v.6260833h-5.9094985c.0312041.6884167.2220995 1.21825.5717685 1.5885833.3505869.37125.8388386.5564167 1.4656731.5564167.5332224 0 .9324508-.1035833 1.1986031-.3135.26707-.2080833.4368568-.4849167.5102782-.8295833h2.1475736c-.1367472.8873333-.5414823 1.5684166-1.2151229 2.04325-.6745583.4748333-1.5748873.71225-2.7046578.71225zm11.1146111-5.15075c-.0422172-.6260834-.2138396-1.0880834-.5167025-1.386-.3046985-.297-.7268711-.4464167-1.2701888-.4464167-.5121138 0-.9333686.1604167-1.261929.4775833-.3294782.319-.5359756.77-.6194924 1.3548334zm-1.725401 5.15075c-.6158213 0-1.1848365-.0935-1.7070457-.2823334-.5240446-.187-.9728325-.4638333-1.348199-.8295833-.3872974-.3538333-.6883248-.7883333-.9021644-1.2989167-.2147574-.5115-.3203005-1.0963333-.3203005-1.7535833v-.1255833c0-.6471667.1055431-1.232.3203005-1.7535834.2138396-.5215833.514867-.97075.9021644-1.3456666.3753665-.36575.8204833-.6499167 1.3316792-.8543334.5121137-.2035 1.0655269-.3043333 1.6620752-.3043333.5332223 0 1.0398294.07975 1.5198213.2429167.4799919.1613333.904.4088333 1.2701888.7434166.3652711.33275.6580386.7645.8783025 1.2906667.2184285.528.3285605 1.1568333.3285605 1.8874167v.6260833h-5.9094985c.031204.6884167.2220995 1.21825.5717685 1.5885833.3505868.37125.8397563.5564167 1.4656731.5564167.5332223 0 .9333685-.1035833 1.198603-.3135.2670701-.2080833.4368569-.4849167.5102782-.8295833h2.1475736c-.1367472.8873333-.5405644 1.5684166-1.2151228 2.04325-.6736406.4748333-1.5748873.71225-2.7046579.71225zm8.6058965-.0154917c-.8672894 0-1.525328-.21725-1.9741158-.6499167-.4506233-.4326666-.6754761-1.078-.6754761-1.9341666v-4.1479167h-1.0490071v-1.6133333h1.0490071v-1.76825h2.2586233v1.76825h1.7235655v1.6133333h-1.7235655v3.9444167c0 .3235833.0752569.5665.2266884.7278333.1505137.1631667.3781198.2429167.6819005.2429167.1670335 0 .3212182-.0119167.4616365-.0385.1422538-.0265834.27533-.0650834.401064-.11825v1.7535833c-.1569381.05225-.3505868.1026667-.5800285.1494167-.2312771.04675-.4965116.0705833-.8002923.0705833"/><path d="m91.1032386 22.1065625h3.3532893l2.6190762 6.9678125 2.5858071-6.9678125h3.2913398v11.1947917h-2.523858v-7.8604167l-3.1043448 7.8604167h-.8294314l-3.1181117-7.8604167v7.8604167h-2.2737665z"/><path d="m108.172824 31.9078833c.502018 0 .921437-.12925 1.261011-.3859166.339573-.2585.510278-.61875.510278-1.08075v-.6939167h-.878303c-.658038 0-1.170152.0843333-1.535423.2520833-.367107.1686667-.549742.473-.549742.9148334 0 .30525.095448.5463333.282672.7250833.18906.17875.491923.2685833.909507.2685833m-.673641 1.5656667c-.377202 0-.729624-.0476667-1.059103-.1411667-.32856-.0944166-.618574-.2401666-.869124-.4381666-.250551-.198-.449706-.451-.595631-.7599167-.146843-.3070833-.220264-.6755833-.220264-1.1036667 0-.4794166.105543-.8864166.314794-1.221.208333-.3336666.501101-.605.876467-.814.376284-.209.826908-.3593333 1.348199-.45375.522209-.0944166 1.097649-.1411666 1.724483-.1411666h.925109v-.3290834c0-.4904166-.091777-.8635-.274412-1.11925-.182636-.25575-.535976-.3831666-1.058185-.3831666-.448788 0-.781019.1045-.994859.3135-.214757.2080833-.346916.4904166-.400146.84425h-2.146656c.030286-.4794167.14776-.8974167.351505-1.25125.204662-.3556667.468061-.6480834.792032-.87725.323972-.2291667.703009-.3996667 1.136195-.50875.433186-.11.901247-.1640834 1.403265-.1640834s.961819.0540834 1.380321.1640834c.416666.1090833.782855.2841666 1.095813.5234166.302863.2410834.538729.5545834.70668.9395834.165198.3868333.249633.8561666.249633 1.4098333v5.3386667h-2.209064v-.9863334c-.241373.3345834-.552496.6105-.933369.8295834-.381791.22-.89574.3290833-1.543683.3290833m11.035224-1.76935c.627753 0 1.107744-.20625 1.442729-.6196667.334067-.4143333.501101-1.0239166.501101-1.8305833v-.1265c0-.8369167-.182636-1.4593333-.547907-1.86725-.366189-.4079167-.837003-.61325-1.411525-.61325-.59563 0-1.078375.20625-1.450071.6205833-.370777.4134167-.555249 1.034-.555249 1.8599167v.1265c0 .82775.178965 1.4419167.540565 1.84525.359764.4033333.853523.605 1.480357.605zm-4.216219-6.59175h2.273308v1.28425c.229441-.396.571768-.7415833 1.026063-1.0330833.455212-.2915.984763-.4381667 1.591407-.4381667.5011 0 .969161.09075 1.403265.2731667.432268.1833333.811305.4519166 1.136195.8066666.323053.3556667.576357.7929167.75991 1.3145.181718.5234167.274412 1.1229167.274412 1.8003334v.1265c0 .6783333-.092694 1.27875-.274412 1.8003333-.183553.5215833-.43135.9606667-.744308 1.3145-.323972.36575-.70301.6425833-1.137113.8295833-.433186.1888334-.905836.2823334-1.417949.2823334-.637848 0-1.182084-.1384167-1.629954-.4143334-.449705-.2768333-.779183-.61325-.987516-1.0110833v4.03975h-2.273308z"/><path d="m4.76206091 45.6064583h-3.02518781v-1.973125h8.6052081v1.973125h-3.0251878v9.2216667h-2.55483249z"/><path d="m16.2365742 49.8490667c-.0422172-.6260834-.2147573-1.0880834-.5176203-1.3850834-.3037807-.297-.7259533-.4464166-1.2692711-.4464166-.5130314 0-.9333685.1595-1.2619289.4775833-.3303959.3180833-.5359756.7690833-.6194924 1.3539167zm-1.725401 5.15075c-.6167391 0-1.1857543-.0935-1.7070457-.2814167-.5240447-.1879167-.9728325-.46475-1.3491167-.8295833-.3872975-.3538334-.6874071-.7883334-.9012467-1.2998334-.2147574-.5105833-.3212183-1.0963333-.3212183-1.7535833v-.1255833c0-.6471667.1064609-1.2310834.3212183-1.7535834.2138396-.5215833.5139492-.9698333.9012467-1.3456666.3762842-.36575.8204832-.6499167 1.3316791-.8534167.5121138-.2035 1.0664447-.30525 1.6629929-.30525.5323046 0 1.0398295.0806667 1.5198214.2438333.4799918.1604167.904.4088334 1.269271.7425.3652711.3336667.6589564.7645.8783026 1.2906667.2193462.528.3285604 1.1568333.3285604 1.8883333v.6260834h-5.9085807c.031204.6875.2211817 1.21825.5717685 1.5885833s.8388386.5555 1.4647553.5555c.5341401 0 .9333685-.1035833 1.1995208-.3125833.2670701-.209.4368569-.4858334.5102782-.8295834h2.1466558c-.1358294.8864167-.5405644 1.5675-1.214205 2.04325-.6745584.4739167-1.5748873.7113334-2.7046579.7113334zm8.5755184-1.5646584c.5011005 0 .9214375-.1301666 1.2610111-.3868333.3395736-.2575833.5102782-.6178333.5102782-1.08075v-.693h-.8783025c-.6589564 0-1.1710701.0834167-1.5363411.2520833-.3661889.1686667-.5488244.473-.5488244.9139167 0 .30525.0945299.54725.2826721.726.1881421.1778333.4910051.2685833.9095066.2685833m-.6745584 1.56475c-.3762843 0-.7287066-.04675-1.0581848-.14025-.3294781-.0953333-.6194924-.2401666-.8700426-.4390833-.2505503-.198-.4497056-.451-.5956305-.759-.1468426-.308-.2193462-.6755833-.2193462-1.1036667 0-.4794166.1046254-.8873333.3138762-1.2219166.2092507-.33275.5011005-.6040834.8773848-.814.3753664-.2080834.8259898-.3593334 1.3481989-.45375.5222092-.0935 1.096731-.14025 1.7235655-.14025h.9260264v-.3290834c0-.4913333-.0926944-.8635-.2753299-1.11925-.1826356-.25575-.5359757-.3831666-1.057267-.3831666-.4497056 0-.7810193.1035833-.9957767.3135-.2147574.2071666-.3469157.4895-.4001462.8433333h-2.1466558c.0302863-.4794167.1477604-.8965.3524223-1.25125.2037442-.35475.4680609-.6480833.7920325-.87725.3230538-.2291667.7020914-.39875 1.1361949-.5078333.432268-.1109167.900329-.165 1.403265-.165.5011005 0 .9609015.0540833 1.379403.165.416666.1090833.7828549.28325 1.0958132.5234166.3037808.2410834.538729.5536667.7066802.9386667.1661158.38775.2505503.8570833.2505503 1.4098333v5.3395834h-2.2099817v-.98725c-.2413726.3355-.5524955.6105-.9333686.8305-.3817908.2190833-.8957401.3281666-1.5436832.3281666m6.8183626-8.36h2.2733077v1.2521667c.2083329-.3859167.5240446-.7223333.9480527-1.00925.4230904-.2869167.9425462-.4308333 1.5592853-.4308333.5442356 0 1.0113787.1155 1.4023472.3446666.3928041.2291667.6874071.5885.8865625 1.08075.334067-.5014166.7470619-.8644166 1.238067-1.089.4919228-.2245833.9976122-.3364166 1.5207391-.3364166.3762842 0 .7296243.0605 1.0581847.1796666.3294782.121.6185746.30525.8700427.5564167.239537.26125.4276792.5894167.5644264.9863333.1358294.396.2028264.86625.2028264 1.4089167v5.2451667h-2.2567879v-5.0068334c0-.5325833-.1128852-.9203333-.337738-1.1614166-.2248528-.2410834-.5405645-.36025-.9480528-.36025-.4386924 0-.8122234.1384166-1.1215107.41525-.3074518.2768333-.4607188.6985-.4607188 1.2631666v4.8500834h-2.2567878v-5.0068334c0-.5325833-.1147208-.9203333-.3459979-1.1614166-.2294417-.2410834-.5433178-.36025-.9407107-.36025-.4377746 0-.8122234.1384166-1.1205929.41525-.3074518.2768333-.4616365.6985-.4616365 1.2631666v4.8500834h-2.2733077z"/></g></g></svg>