<svg width="20" height="16" xmlns="http://www.w3.org/2000/svg"><g id="Case-Study-template" stroke="none" stroke-width="1" fill="none" fill-rule="evenodd"><g id="Case_Study_Elsie" transform="translate(-165 -10030)" fill="#071D49" fill-rule="nonzero"><g id="Group-23" transform="translate(165 10026)"><g id="Group-12"><g id="left-arrow-(1)" transform="translate(0 4)"><path d="M18.12 6.49l.03.006H5.304l4.039-4.061c.198-.198.306-.467.306-.749S9.54 1.137 9.342.94L8.713.308A1.04 1.04 0 0 0 7.972 0a1.04 1.04 0 0 0-.742.307L.306 7.253A1.05 1.05 0 0 0 0 7.999c0 .284.108.549.306.748l6.924 6.946c.197.198.46.307.742.307.28 0 .544-.11.741-.307l.629-.631a1.043 1.043 0 0 0 0-1.474L5.257 9.504h12.878c.579 0 1.065-.5 1.065-1.08V7.53c0-.58-.5-1.042-1.08-1.042z" id="Path"/></g></g></g></g></g></svg>