<svg width="20" height="16" xmlns="http://www.w3.org/2000/svg"><g id="Case-Study-template" stroke="none" stroke-width="1" fill="none" fill-rule="evenodd"><g id="Case_Study_Elsie" transform="translate(-165 -9958)" fill="#071D49" fill-rule="nonzero"><path d="M183.12 9964.49l.03.006h-12.847l4.039-4.061c.198-.198.306-.467.306-.749s-.108-.549-.306-.747l-.629-.631a1.04 1.04 0 0 0-.741-.308 1.04 1.04 0 0 0-.742.307l-6.924 6.946a1.046 1.046 0 0 0-.306.746c0 .284.108.549.306.748l6.924 6.946c.197.198.46.307.742.307.28 0 .544-.11.741-.307l.629-.63c.198-.199.306-.463.306-.745s-.108-.532-.306-.73l-4.085-4.084h12.878c.579 0 1.065-.5 1.065-1.08v-.893c0-.58-.5-1.042-1.08-1.042z" id="Path" transform="matrix(-1 0 0 1 349.2 0)"/></g></g></svg>