<svg width="42" height="42" xmlns="http://www.w3.org/2000/svg"><g id="dribbble" stroke="none" stroke-width="1" fill="none" fill-rule="evenodd"><g id="dribbble-logo" transform="translate(1 1)" fill="#FFF" fill-rule="nonzero"><path d="M37.279 9.95a19.895 19.895 0 0 0-7.271-7.27C26.946.892 23.604 0 19.979 0c-3.624 0-6.967.893-10.028 2.68A19.89 19.89 0 0 0 2.68 9.95C.893 13.011 0 16.354 0 19.98c0 3.624.893 6.967 2.68 10.028a19.895 19.895 0 0 0 7.27 7.271c3.062 1.786 6.404 2.68 10.029 2.68s6.968-.894 10.029-2.68a19.89 19.89 0 0 0 7.27-7.27c1.786-3.062 2.68-6.405 2.68-10.03 0-3.624-.894-6.967-2.68-10.028zm-17.3-7.036c4.3 0 8.056 1.422 11.264 4.266l-.325.455c-.13.182-.455.533-.976 1.053a16.72 16.72 0 0 1-1.703 1.483c-.616.469-1.453 1.002-2.511 1.6a24.149 24.149 0 0 1-3.382 1.574c-1.994-3.677-4.127-6.99-6.4-9.937a17.21 17.21 0 0 1 4.033-.494zM6.609 9.39a16.835 16.835 0 0 1 6.086-4.838c2.15 2.862 4.266 6.14 6.348 9.834-5.273 1.387-10.527 2.08-15.765 2.08a16.866 16.866 0 0 1 3.33-7.076zm-2.55 16.742a16.74 16.74 0 0 1-1.145-6.153c0-.243.009-.425.026-.547 6.278 0 12.114-.806 17.508-2.419a45.175 45.175 0 0 1 1.378 2.888c-.07.034-.182.073-.338.117-.157.043-.269.073-.339.09l-.962.339c-.66.243-1.523.66-2.589 1.248a43.393 43.393 0 0 0-3.394 2.108c-1.197.815-2.433 1.895-3.707 3.24a21.805 21.805 0 0 0-3.213 4.33 17.085 17.085 0 0 1-3.226-5.241zm15.92 10.912c-4.058 0-7.683-1.3-10.874-3.902l.39.286c.607-1.335 1.5-2.619 2.68-3.85 1.18-1.23 2.315-2.224 3.408-2.979a33.582 33.582 0 0 1 3.564-2.133c1.283-.668 2.158-1.093 2.627-1.274.468-.182.841-.326 1.119-.43l.051-.026h.053c1.699 4.457 2.913 8.775 3.642 12.955a17.057 17.057 0 0 1-6.66 1.353zm14.36-7.843a17.047 17.047 0 0 1-4.812 4.93c-.712-3.99-1.82-8.056-3.33-12.201 3.451-.538 6.998-.286 10.64.754a16.835 16.835 0 0 1-2.498 6.517zm2.445-9.456a19.1 19.1 0 0 0-.65-.117c-.26-.043-.577-.096-.95-.156-.373-.061-.79-.117-1.249-.17-.46-.051-.95-.099-1.47-.142a42.882 42.882 0 0 0-3.46-.143c-.606 0-1.244.017-1.912.052-.667.034-1.313.095-1.937.182a3.081 3.081 0 0 1-.195-.43 8.995 8.995 0 0 1-.169-.455c-.33-.728-.711-1.552-1.145-2.471a26.696 26.696 0 0 0 3.422-1.678c1.083-.634 1.95-1.197 2.6-1.691a21.91 21.91 0 0 0 1.847-1.574c.581-.555.958-.94 1.132-1.158.174-.217.339-.43.494-.637l.027-.026c2.532 3.087 3.824 6.642 3.875 10.666l-.26-.052z" id="Shape"/></g></g></svg>