<svg width="42" height="42" xmlns="http://www.w3.org/2000/svg"><g id="facebook" stroke="none" stroke-width="1" fill="none" fill-rule="evenodd"><path d="M30.812 1.008L25.625 1c-5.828 0-9.594 3.864-9.594 9.844v4.539h-5.215a.816.816 0 0 0-.816.816v6.576c0 .45.365.816.816.816h5.215v16.593c0 .451.365.816.816.816h6.804c.45 0 .816-.365.816-.816V23.591h6.098c.45 0 .816-.365.816-.816l.002-6.576a.817.817 0 0 0-.816-.816h-6.1v-3.848c0-1.849.44-2.788 2.85-2.788l3.494-.001c.45 0 .815-.365.815-.816V1.824a.816.816 0 0 0-.814-.816z" id="Shape" fill="#FFF" fill-rule="nonzero"/></g></svg>