<svg width="42" height="42" xmlns="http://www.w3.org/2000/svg"><g id="instagram" stroke="none" stroke-width="1" fill="none" fill-rule="evenodd"><g id="87390" transform="translate(1 1)" fill="#FFF" fill-rule="nonzero"><path d="M28.801 0H10.977C4.924 0 0 4.925 0 10.978v17.824c0 6.053 4.924 10.977 10.977 10.977h17.824c6.054 0 10.978-4.924 10.978-10.977V10.978C39.78 4.925 34.855 0 28.801 0zm7.45 28.802c0 4.107-3.342 7.448-7.45 7.448H10.978c-4.106 0-7.448-3.341-7.448-7.448V10.978c0-4.107 3.342-7.449 7.448-7.449h17.824c4.107 0 7.449 3.342 7.449 7.449v17.824z" id="Shape"/><path d="M19.89 9.64c-5.652 0-10.25 4.598-10.25 10.25s4.598 10.25 10.25 10.25 10.25-4.598 10.25-10.25S25.542 9.64 19.89 9.64zm0 16.97a6.728 6.728 0 0 1-6.721-6.72 6.728 6.728 0 0 1 6.72-6.72 6.728 6.728 0 0 1 6.721 6.72 6.728 6.728 0 0 1-6.72 6.72zM30.57 6.647c-.68 0-1.348.276-1.829.758a2.6 2.6 0 0 0-.76 1.83c0 .68.278 1.349.76 1.831a2.61 2.61 0 0 0 1.829.758c.682 0 1.348-.278 1.83-.758.483-.482.758-1.15.758-1.83a2.6 2.6 0 0 0-.758-1.831 2.6 2.6 0 0 0-1.83-.758z" id="Shape"/></g></g></svg>