<svg width="42" height="42" xmlns="http://www.w3.org/2000/svg"><g id="linkedin" stroke="none" stroke-width="1" fill="none" fill-rule="evenodd"><path d="M38.8 3.2C37.333 1.734 35.566 1 33.5 1h-25c-2.066 0-3.833.734-5.3 2.2C1.734 4.667 1 6.434 1 8.5v25c0 2.066.734 3.833 2.2 5.3C4.667 40.267 6.434 41 8.5 41h25c2.066 0 3.833-.733 5.3-2.2 1.466-1.467 2.2-3.234 2.2-5.3v-25c0-2.066-.734-3.833-2.2-5.3zM13.188 34.49H7.172V16.417h6.016V34.49zm-.547-21.42c-.625.6-1.45.9-2.474.9h-.026c-.99 0-1.793-.3-2.41-.9-.616-.598-.924-1.34-.924-2.226 0-.903.317-1.65.95-2.24.635-.59 1.455-.885 2.462-.885 1.007 0 1.814.295 2.422.885.607.59.92 1.337.937 2.24 0 .885-.312 1.627-.937 2.227zm22.187 21.42h-6.015v-9.662c0-2.725-1.007-4.088-3.02-4.088-.765 0-1.407.213-1.928.638a4.008 4.008 0 0 0-1.172 1.55c-.122.312-.182.798-.182 1.457V34.49h-6.016c.052-10.903.052-16.928 0-18.074h6.016v2.552C23.776 16.99 25.57 16 27.9 16c2.084 0 3.76.685 5.027 2.057 1.267 1.371 1.9 3.394 1.9 6.067V34.49z" id="Shape" fill="#FFF" fill-rule="nonzero"/></g></svg>