<svg width="416" height="34" xmlns="http://www.w3.org/2000/svg"><g id="Page-1" stroke="none" stroke-width="1" fill="none" fill-rule="evenodd"><g id="Lisboa2020_CMYK_1" fill="#FFF" fill-rule="nonzero"><path d="M131.782 20.286c0-7.13-5.586-12.716-12.935-12.716-7.35 0-12.936 5.586-12.936 12.716 0 7.35 5.586 13.082 12.936 13.082s12.935-5.733 12.935-13.082m-4.777 0c0 5.144-3.675 9.04-8.158 9.04-4.484 0-8.159-3.896-8.159-9.04 0-4.925 3.675-8.673 8.159-8.673 4.483 0 8.158 3.748 8.158 8.673m-21.976-5.366c0-4.704-3.748-7.35-8.158-7.35-5.954 0-8.232 4.998-8.232 4.998l3.16 2.205s1.764-3.16 4.704-3.16c2.132 0 3.822 1.176 3.822 3.528 0 5.365-11.98 6.541-11.98 15.581 0 .735.073 1.397.22 2.205h17.272v-6.835h-3.968v3.16h-8.526c.073-5.145 11.686-6.615 11.686-14.332m53.213-7.276c0-4.19-3.234-7.424-7.644-7.424s-7.644 3.234-7.644 7.424c0 4.263 3.234 7.644 7.644 7.644s7.644-3.381 7.644-7.644m-3.749 0c0 2.572-1.764 4.483-3.895 4.483-2.132 0-3.896-1.91-3.896-4.483 0-2.426 1.764-4.263 3.896-4.263 2.131 0 3.895 1.837 3.895 4.263m-22.564 7.35h10.51v-4.557h-3.086V12.2h-3.675c.073-2.279 6.394-3.234 6.394-7.497 0-3.087-2.646-4.484-4.998-4.484-3.822 0-5.145 3.16-5.145 3.16l2.5 1.691s.955-1.69 2.351-1.69c.735 0 1.544.294 1.544 1.543 0 2.5-6.542 3.234-6.542 8.6 0 .44.074.955.147 1.47" id="Shape"/><path d="M88.933 20.212c0-.808-.074-1.617-.22-2.352-1.03-6.027-5.954-10.437-12.569-10.437-7.497 0-13.156 5.66-13.156 12.936 0 7.423 5.66 13.23 13.156 13.23 2.352 0 4.484-.588 6.321-1.617l-2.278-3.675a7.645 7.645 0 0 1-4.043 1.176c-4.557 0-8.305-3.97-8.305-9.187 0-4.998 3.748-8.82 8.305-8.82 4.557 0 8.305 3.822 8.305 8.82 0 .514-.073 1.47-.073 1.47-.147.808-.588 1.396-1.396 1.396-.809 0-1.397-.588-1.397-1.397V19.11c0-3.014-1.764-4.63-5.071-4.63-2.867 0-4.778 1.47-4.778 1.47l1.176 2.35s1.69-.808 3.234-.808c.882 0 1.617.367 1.617 1.249v.368H77.1c-1.764 0-6.1.514-6.1 3.821 0 2.279 1.763 3.528 3.748 3.528 2.425 0 3.38-1.91 3.38-1.91h.074c1.03 2.204 3.528 2.425 4.851 2.425 3.38 0 5.88-2.646 5.88-6.762m-11.172 1.25c0 1.028-.955 2.351-1.91 2.351-.81 0-1.25-.44-1.25-1.176 0-1.029 1.543-1.396 2.793-1.396h.367v.22zM62.473 23.96c0-5.585-3.16-9.407-8.01-9.407-3.75 0-5.366 2.646-5.366 2.646h-.074s.074-.662.074-1.544V3.822h-7.203v3.307h2.72V32.78h4.189v-1.102c0-.735-.074-1.323-.074-1.323h.074s1.47 2.866 5.365 2.866c4.778.147 8.305-3.601 8.305-9.26m-4.483.073c0 3.528-2.058 5.586-4.557 5.586-3.013 0-4.41-2.72-4.41-5.513 0-3.968 2.205-5.659 4.484-5.659 2.646-.073 4.483 2.205 4.483 5.586M39.69 18.3h1.838v-3.307h-11.1c-.147.735-.22 1.25-.22 1.91 0 6.689 8.158 7.57 8.158 10.658 0 1.47-1.029 1.91-1.984 1.91-1.69 0-2.94-2.057-2.94-2.057l-3.087 2.131s1.69 3.896 6.394 3.896c2.94 0 6.247-1.69 6.247-5.513 0-5.292-7.79-6.615-7.937-9.48h4.63V18.3zM19.992 32.927h9.628V29.62h-2.573V15.067h-7.202v3.308h2.792V29.62h-2.572v3.307h-.073zm7.57-26.533c0-1.617-1.25-2.866-2.94-2.866s-2.94 1.25-2.94 2.866c0 1.617 1.25 2.94 2.94 2.94s2.94-1.323 2.94-2.94M0 32.927h18.889v-7.57H14.92v3.895H7.57V7.644h3.014V3.969H0v3.675h3.013v21.902H0v3.381z" id="Shape"/><path d="M343.457 3.969v28.738h-43.364V3.969h43.364zm-21.682 22.49l-.367 1.176h-1.25l1.03.735-.368 1.176 1.029-.735 1.029.735-.368-1.176 1.03-.735h-1.25l-.515-1.176zm-4.85-1.25l-.368 1.177h-1.25l1.03.735-.368 1.176 1.029-.735 1.029.735-.368-1.176 1.03-.735h-1.25l-.515-1.176zm9.554-.073l-.367 1.176h-1.25l1.03.735-.368 1.176 1.029-.735 1.029.735-.368-1.176 1.03-.735h-1.25l-.515-1.176zm3.749-3.454l-.368 1.176h-1.323l1.03.735-.368 1.176 1.029-.735 1.029.735-.368-1.176 1.029-.735h-1.25l-.44-1.176zm-16.979 0l-.367 1.176h-1.25l1.03.735-.368 1.176 1.029-.735 1.029.735-.368-1.176 1.03-.735h-1.25l-.515-1.176zm18.155-4.998l-.368 1.176h-1.25l1.03.735-.368 1.176 1.029-.735 1.029.735-.367-1.176 1.028-.735h-1.249l-.514-1.176zm-19.33 0l-.368 1.176h-1.25l1.03.735-.368 1.176 1.029-.735 1.029.735-.368-1.176 1.03-.735h-1.25l-.515-1.176zm1.175-4.777l-.367 1.176h-1.25l1.03.735-.368 1.176 1.029-.735 1.029.735-.368-1.176 1.03-.735h-1.25l-.515-1.176zm16.832-.074l-.368 1.176h-1.25l1.03.735-.368 1.176 1.03-.735 1.028.735-.367-1.176 1.029-.735h-1.25l-.514-1.176zm-13.23-3.528l-.368 1.176h-1.25l1.03.735-.368 1.25 1.03-.735 1.028.735-.367-1.25 1.029-.735h-1.25l-.514-1.176zm9.775 0l-.367 1.176h-1.25l1.03.735-.368 1.176 1.029-.735 1.029.735-.368-1.176 1.03-.735h-1.25l-.515-1.176zm-4.998-1.323l-.367 1.176h-1.25l1.03.735-.368 1.176 1.029-.735 1.029.735-.368-1.176 1.03-.735h-1.25l-.515-1.176z" id="Combined-Shape"/><path d="M205.06 30.06l6.468-5.512c.661-.514 1.176-1.029 1.617-1.47.44-.44.808-.882 1.102-1.249.294-.368.515-.809.588-1.176.147-.367.22-.808.22-1.176 0-.955-.293-1.617-.881-2.131-.588-.515-1.323-.735-2.132-.735-.882 0-1.617.22-2.278.735-.662.44-1.323 1.176-2.058 2.131l-2.352-1.837c.441-.662.882-1.176 1.397-1.69.44-.515.955-.883 1.543-1.25.514-.368 1.176-.588 1.837-.809.662-.147 1.397-.294 2.279-.294.882 0 1.764.147 2.499.441.735.294 1.396.662 1.984 1.176.515.515.956 1.103 1.25 1.764.294.662.44 1.47.44 2.279v.073c0 .735-.073 1.397-.293 1.984a9.88 9.88 0 0 1-.882 1.764c-.368.588-.882 1.103-1.544 1.69-.588.589-1.323 1.177-2.131 1.838l-3.896 3.234h8.967v2.94H205.06v-2.72z" id="Path"/><path d="M230.05 29.693c.955 0 1.763-.147 2.572-.514.808-.368 1.47-.809 1.984-1.397.588-.588.956-1.323 1.323-2.131a7.57 7.57 0 0 0 .441-2.573v-.073a7.57 7.57 0 0 0-.44-2.572c-.295-.809-.736-1.544-1.324-2.132-.588-.588-1.25-1.102-2.058-1.47-.808-.367-1.617-.514-2.572-.514-.956 0-1.764.147-2.572.514-.809.368-1.47.809-1.985 1.397-.588.588-.955 1.323-1.323 2.131a7.57 7.57 0 0 0-.44 2.572v.074c0 .882.146 1.764.44 2.572.294.809.735 1.544 1.323 2.132.588.588 1.25 1.102 2.058 1.47.809.294 1.69.514 2.572.514m0 3.014c-1.47 0-2.792-.22-3.968-.735-1.176-.515-2.205-1.176-3.087-2.058a8.57 8.57 0 0 1-1.985-3.087c-.514-1.176-.735-2.426-.735-3.749v-.073c0-1.323.22-2.572.735-3.748.515-1.176 1.176-2.205 2.058-3.087a10.08 10.08 0 0 1 3.087-2.132 9.81 9.81 0 0 1 3.969-.808c1.47 0 2.793.22 3.969.735 1.176.514 2.205 1.176 3.087 2.058a8.57 8.57 0 0 1 1.984 3.087c.515 1.176.735 2.425.735 3.748v.073c0 1.323-.22 2.573-.735 3.749-.514 1.176-1.176 2.205-2.058 3.087a10.08 10.08 0 0 1-3.087 2.131c-1.176.515-2.572.809-3.969.809" id="Shape"/><path d="M241.221 30.06l6.468-5.512c.662-.514 1.176-1.029 1.617-1.47.441-.44.808-.882 1.102-1.249.294-.368.515-.809.588-1.176.147-.367.221-.808.221-1.176 0-.955-.294-1.617-.882-2.131-.588-.515-1.323-.735-2.131-.735-.882 0-1.617.22-2.279.735-.661.44-1.323 1.176-2.058 2.131l-2.352-1.837c.441-.662.882-1.176 1.397-1.69.44-.515.955-.883 1.543-1.25.515-.368 1.176-.588 1.838-.809.661-.147 1.396-.294 2.278-.294.882 0 1.764.147 2.499.441.735.294 1.396.662 1.984 1.176.515.515.956 1.103 1.25 1.764.294.662.44 1.47.44 2.279v.073c0 .735-.073 1.397-.293 1.984a9.88 9.88 0 0 1-.882 1.764c-.368.588-.882 1.103-1.544 1.69-.588.589-1.323 1.177-2.131 1.838l-3.895 3.234h8.966v2.94h-13.597v-2.72h-.147z" id="Path"/><path d="M266.21 29.693c.956 0 1.765-.147 2.573-.514.809-.368 1.47-.809 1.984-1.397.588-.588.956-1.323 1.323-2.131a7.57 7.57 0 0 0 .441-2.573v-.073a7.57 7.57 0 0 0-.44-2.572c-.295-.809-.736-1.544-1.324-2.132-.587-.588-1.249-1.102-2.057-1.47-.809-.367-1.617-.514-2.573-.514-.955 0-1.764.147-2.572.514-.809.368-1.47.809-1.985 1.397-.588.588-.955 1.323-1.323 2.131a7.57 7.57 0 0 0-.44 2.572v.074c0 .882.146 1.764.44 2.572.294.809.735 1.544 1.323 2.132.588.588 1.25 1.102 2.058 1.47.809.294 1.617.514 2.573.514m-.074 3.014c-1.47 0-2.793-.22-3.969-.735-1.176-.515-2.205-1.176-3.087-2.058a8.57 8.57 0 0 1-1.984-3.087c-.515-1.176-.735-2.426-.735-3.749v-.073c0-1.323.22-2.572.735-3.748.514-1.176 1.176-2.205 2.058-3.087a10.08 10.08 0 0 1 3.087-2.132 9.81 9.81 0 0 1 3.969-.808c1.47 0 2.793.22 3.969.735 1.175.514 2.204 1.176 3.086 2.058a8.57 8.57 0 0 1 1.985 3.087c.514 1.176.735 2.425.735 3.748v.073c0 1.323-.22 2.573-.735 3.749-.515 1.176-1.176 2.205-2.058 3.087a10.08 10.08 0 0 1-3.087 2.131 9.81 9.81 0 0 1-3.969.809M240.192 9.26V8.6c.22-.074.441-.074.662-.074V4.704c-.22 0-.515-.074-.662-.074v-.66h2.352v.661c-.22.074-.44.074-.661.074v3.748h1.029c0-.22.073-.44.073-.661h.735v1.47h-3.528zm-2.72-3.38c-.073-.294-.146-.515-.22-.809l-.22.882-.441 1.25h1.396l-.514-1.323zm.368 3.38V8.6c.147 0 .368-.074.588-.074l-.22-.662h-1.911l-.22.662c.146 0 .367.073.587.073v.662h-1.984v-.662c.147-.073.294-.073.44-.073l1.618-4.557h1.25l1.616 4.557c.147 0 .294.073.441.073v.662h-2.205zm-3.675-1.984V9.04c-.514.22-1.176.294-1.837.294-1.69 0-2.646-.955-2.646-2.572 0-1.69 1.102-2.867 2.94-2.867.514 0 .955.074 1.47.22v1.397h-.809c-.073-.22-.073-.44-.073-.661-.22-.074-.441-.074-.662-.074-1.029 0-1.764.662-1.764 1.838 0 1.102.588 1.764 1.69 1.764.221 0 .442 0 .662-.074V7.203c-.22 0-.44-.074-.661-.074v-.661h2.131v.661c-.147.074-.294.074-.44.147m-5.219-2.572v2.499c0 1.396-.808 2.131-2.205 2.131-1.69 0-2.058-.882-2.058-1.91v-2.72c-.147 0-.367-.074-.514-.074v-.66h2.058v.661c-.147.074-.368.074-.588.074V7.35c0 .661.22 1.102 1.102 1.102.809 0 1.103-.294 1.103-1.25V4.63c-.221 0-.368-.073-.588-.073v-.662h2.057v.662c-.073.147-.22.147-.367.147m-5.88.808c0-.22-.073-.44-.073-.661h-.809v3.748c.22 0 .441.074.662.074v.661h-2.352v-.661c.22-.074.44-.074.661-.074V4.851h-.808c0 .22-.074.44-.074.661h-.735v-1.47h4.337v1.47h-.809zm-6.027-.735h-.367v1.544h.367c.588 0 .956-.294.956-.809 0-.44-.294-.735-.956-.735m1.03 4.484l-1.324-2.205h-.147v1.47c.147 0 .294.073.515.073v.662h-2.205v-.662c.22-.073.44-.073.661-.073V4.704c-.22 0-.44-.074-.661-.074v-.66h2.205c1.176 0 1.91.44 1.91 1.47 0 .735-.514 1.25-1.249 1.47.074.147.22.294.294.367l.809 1.25c.147 0 .367.073.514.073v.662h-1.323zm-5.954-4.41c-.735 0-1.397.588-1.397 1.764 0 1.102.441 1.837 1.397 1.837.661 0 1.396-.514 1.396-1.764 0-1.176-.514-1.837-1.396-1.837m-.074 4.557c-1.617 0-2.425-1.03-2.425-2.646 0-1.764 1.176-2.793 2.572-2.793 1.397 0 2.426.882 2.426 2.646 0 1.69-1.176 2.793-2.573 2.793m-4.924-4.63h-.367V6.54h.294c.588 0 1.028-.367 1.028-.955 0-.441-.293-.809-.955-.809m0 2.646h-.367v1.103c.22 0 .44.073.661.073v.662h-2.352v-.662c.22-.073.441-.073.662-.073V4.704c-.22 0-.441-.074-.662-.074v-.66h2.058c1.323 0 1.984.588 1.984 1.617.074 1.029-.735 1.837-1.984 1.837" id="Shape"/><path d="M189.184 4.116c-4.63 1.837-7.57 6.688-7.57 14.185v11.392s.956-7.276 7.57-9.407V4.116z" id="Path"/><path d="M191.463 21.388c-2.72.514-6.688 2.72-7.864 5.733 5.806-7.056 17.64-.22 18.227-13.524.147-4.19.147-9.408.147-9.408-6.174.368-10.51 1.985-10.51 1.985v15.214z" id="Path"/><path d="M190.728 25.21s-6.32.514-6.835 4.116c-.441 2.793 6.835 2.866 6.835 2.866V25.21z" id="Path"/><path d="M349.484 29.4c-.147-.074-.294-.074-.44-.074-.368 0-.589.147-.736.367-.147.294-.22.662-.22 1.25 0 .514.073.955.22 1.176.147.22.441.367.735.367.147 0 .294 0 .441-.073a.574.574 0 0 0 .294-.294v.294h.515v-4.41h-.515v1.69a.574.574 0 0 0-.294-.294m.147.588c.074.147.147.515.147.882 0 .441-.073.735-.147.882-.073.22-.22.294-.44.294-.221 0-.368-.073-.442-.294-.073-.147-.147-.514-.147-.955 0-.368.074-.662.147-.882.074-.22.22-.294.441-.294.22.147.368.22.441.367m1.985-.073c.073-.147.22-.22.44-.22.221 0 .295.073.442.146.073.147.147.294.147.515v.294h-1.176c0-.368.073-.588.147-.735m1.029 1.543c0 .22-.074.368-.221.441a.561.561 0 0 1-.367.147c-.221 0-.368-.073-.441-.22a1.468 1.468 0 0 1-.147-.662v-.147h1.69v-.44c0-.442-.073-.736-.294-.956-.147-.22-.441-.294-.808-.294-.368 0-.662.147-.882.367-.147.22-.294.662-.294 1.176 0 .588.073 1.03.294 1.25.147.22.44.367.882.367.294 0 .588-.073.808-.294.22-.147.294-.44.294-.735h-.514zm3.674.956c.441 0 .735-.074.956-.147a.753.753 0 0 0 .44-.368c.074-.147.148-.294.221-.588.074-.22.074-.588.074-1.102 0-.662 0-1.103-.074-1.397-.073-.22-.147-.44-.294-.588-.147-.147-.294-.22-.44-.22-.148-.074-.442-.074-.81-.074h-1.028v4.41h.955v.074zm-.44-3.896h.587c.22 0 .441.074.588.147.147.074.22.22.294.368 0 .073.074.22.074.44v.81c0 .44 0 .734-.074.955 0 .22-.073.367-.147.514-.073.074-.147.22-.294.22-.147.074-.294.074-.514.074h-.588v-3.528h.073zm3.38 1.397c.074-.147.22-.22.441-.22.22 0 .294.073.441.146.074.147.147.294.147.515v.294h-1.176c0-.368.074-.588.147-.735m1.03 1.543c0 .22-.074.368-.221.441a.561.561 0 0 1-.368.147c-.22 0-.367-.073-.44-.22a1.468 1.468 0 0 1-.148-.662v-.147h1.69v-.44c0-.442-.073-.736-.293-.956-.147-.22-.441-.294-.809-.294a1.22 1.22 0 0 0-.882.367c-.147.22-.294.662-.294 1.176 0 .588.074 1.03.294 1.25.147.22.441.367.882.367.294 0 .588-.073.809-.294.22-.147.294-.44.294-.735h-.515zm1.249.809c.147.147.44.22.808.22.294 0 .588-.073.809-.22.22-.147.294-.368.294-.662 0-.22-.074-.367-.147-.44-.074-.148-.294-.295-.588-.442l-.515-.22c-.147-.074-.22-.147-.22-.147-.074-.074-.074-.147-.074-.22 0-.148.074-.221.147-.295.074-.073.22-.073.368-.073.147 0 .294.073.367.147.074.073.147.22.147.367h.588v-.147c0-.22-.073-.44-.294-.588-.147-.147-.44-.22-.735-.22-.294 0-.588.073-.735.22-.22.147-.294.368-.294.662 0 .147.074.294.147.367.074.074.22.22.441.294l.588.294c.147.074.294.147.368.22.073.074.073.148.073.221 0 .147-.073.22-.147.294a.561.561 0 0 1-.367.147.561.561 0 0 1-.368-.147c-.073-.073-.147-.22-.147-.44h-.588c-.147.367-.073.66.074.808m3.087-2.352c.073-.147.22-.22.44-.22.221 0 .295.073.442.146.073.147.147.294.147.515v.294h-1.176c0-.368.073-.588.147-.735m1.029 1.543c0 .22-.074.368-.22.441a.561.561 0 0 1-.368.147c-.22 0-.368-.073-.441-.22a1.468 1.468 0 0 1-.147-.662v-.147h1.69v-.44c0-.442-.073-.736-.294-.956-.147-.22-.44-.294-.808-.294-.368 0-.662.147-.882.367-.147.22-.294.662-.294 1.176 0 .588.073 1.03.294 1.25.147.22.44.367.882.367.294 0 .588-.073.808-.294.22-.147.294-.44.294-.735h-.514zm3.307.956v-2.279a.835.835 0 0 0-.22-.588.835.835 0 0 0-.588-.22c-.147 0-.294 0-.441.073-.147.074-.22.147-.368.294v-.367h-.588v3.087h.515v-1.764c0-.368.073-.588.147-.735.073-.147.22-.22.44-.22.221 0 .295.073.368.146.074.074.147.294.147.588v1.985h.588zm1.985 0l.955-3.087h-.588l-.514 1.764v.073c-.074.294-.147.588-.22.809 0-.147-.074-.294-.074-.441 0-.147-.074-.294-.074-.441l-.514-1.764h-.588l.955 3.087h.662zm1.543-.294c.147.22.441.367.882.367.368 0 .662-.147.882-.367.147-.22.294-.662.294-1.25s-.074-.955-.294-1.25c-.147-.22-.441-.367-.882-.367-.367 0-.661.147-.882.368-.22.22-.294.661-.294 1.25 0 .587.074 1.028.294 1.249m1.323-2.132c.074.147.147.441.147.882s-.073.735-.147.882a.496.496 0 0 1-.441.294c-.22 0-.367-.073-.441-.294-.073-.147-.147-.44-.147-.882 0-.44.074-.735.147-.882a.496.496 0 0 1 .441-.294c.22.074.368.147.441.294m1.837-1.91h-.514v4.41h.514v-4.41zm1.985 4.336l.955-3.087h-.514l-.515 1.764v.073c-.073.294-.147.588-.22.809 0-.147-.074-.294-.074-.441 0-.147-.073-.294-.073-.441l-.515-1.764h-.588l.956 3.087h.588zm1.91-4.337h-.514v.588h.515v-.588zm0 1.323h-.514v3.087h.515V29.4zm1.25 0h-.514v3.087h.514v-1.764c0-.367.074-.588.147-.735.074-.147.22-.22.441-.22.22 0 .294.073.368.147.073.073.147.294.147.588v1.984h.514v-1.764c0-.367.074-.588.147-.735.074-.147.22-.22.441-.22.22 0 .294.073.368.147.073.073.147.294.147.588v1.984h.514v-2.352a.835.835 0 0 0-.22-.588.835.835 0 0 0-.588-.22c-.22 0-.368.073-.515.147a.886.886 0 0 0-.367.367c-.074-.147-.147-.294-.294-.367-.147-.074-.294-.147-.515-.147-.147 0-.294 0-.44.073-.148.074-.221.147-.368.294l.073-.294zm4.557.515c.074-.147.22-.22.441-.22.22 0 .294.073.441.146.074.147.147.294.147.515v.294h-1.176c0-.368.074-.588.147-.735m1.03 1.543c0 .22-.074.368-.221.441a.561.561 0 0 1-.368.147c-.22 0-.367-.073-.44-.22a1.468 1.468 0 0 1-.148-.662v-.147h1.69v-.44c0-.442-.073-.736-.293-.956-.147-.22-.441-.294-.809-.294a1.22 1.22 0 0 0-.882.367c-.147.22-.294.662-.294 1.176 0 .588.074 1.03.294 1.25.147.22.441.367.882.367.294 0 .588-.073.809-.294.22-.147.294-.44.294-.735h-.515zm3.233.956v-2.279a.835.835 0 0 0-.22-.588.835.835 0 0 0-.588-.22c-.147 0-.294 0-.441.073-.147.074-.22.147-.368.294v-.367h-.514v3.087h.514v-1.764c0-.368.074-.588.147-.735.074-.147.22-.22.441-.22.22 0 .294.073.368.146.073.074.147.294.147.588v1.985h.514zm.882-3.675v.588h-.44v.367h.44v1.985c0 .22.074.44.147.514.074.074.294.147.515.147h.22c.074 0 .147 0 .22-.073v-.368h-.22c-.147 0-.22 0-.294-.073-.073-.074-.073-.147-.073-.368V29.62h.588v-.22h-.588v-.883l-.515.22zm1.764 3.38c.147.221.441.368.882.368.368 0 .662-.147.882-.367.147-.22.294-.662.294-1.25s-.073-.955-.294-1.25c-.147-.22-.441-.367-.882-.367-.367 0-.661.147-.882.368-.22.22-.294.661-.294 1.25 0 .587.074 1.028.294 1.249m1.323-2.132c.074.147.147.441.147.882s-.073.735-.147.882a.496.496 0 0 1-.441.294c-.22 0-.367-.073-.44-.294-.074-.147-.148-.44-.148-.882 0-.44.074-.735.147-.882a.496.496 0 0 1 .441-.294c.22.074.368.147.441.294m3.381-1.47h.661c.22 0 .368.074.515.147.147.147.147.294.147.515 0 .294-.074.44-.22.588-.148.147-.368.22-.662.22h-.441v-1.47zm-.588-.44v4.41h.588v-1.985h.661c.22 0 .294.073.368.147.073.073.147.294.147.514v.368c0 .44 0 .808.073.955h.588c-.073-.147-.073-.294-.073-.44v-.882c0-.295-.074-.515-.147-.662-.074-.147-.294-.22-.515-.22a1.6 1.6 0 0 0 .588-.368c.147-.147.22-.441.22-.735 0-.368-.073-.662-.293-.809-.22-.147-.588-.22-1.03-.22h-1.175v-.074zm3.748 1.837c.074-.147.22-.22.441-.22.22 0 .294.073.441.146.074.147.147.294.147.515v.294h-1.176c0-.368.074-.588.147-.735m1.03 1.543c0 .22-.074.368-.221.441a.561.561 0 0 1-.368.147c-.22 0-.367-.073-.44-.22a1.468 1.468 0 0 1-.148-.662v-.147h1.69v-.44c0-.442-.073-.736-.293-.956-.147-.22-.441-.294-.809-.294a1.22 1.22 0 0 0-.882.367c-.147.22-.294.662-.294 1.176 0 .588.074 1.03.294 1.25.147.22.441.367.882.367.294 0 .588-.073.809-.294.22-.147.294-.44.294-.735h-.515zm1.69-1.543a.496.496 0 0 1 .44-.294c.221 0 .368.073.442.294.073.22.147.514.147.955 0 .441-.074.735-.147.882-.074.22-.294.294-.515.294-.22 0-.367-.073-.44-.294-.074-.147-.148-.514-.148-.882a6.3 6.3 0 0 1 .22-.955m-.22 3.528c.147.147.441.22.735.22.22 0 .368 0 .515-.073.147-.074.22-.147.367-.22.074-.074.074-.148.147-.295 0-.073.074-.22.074-.44V29.4h-.515v.293c-.073-.147-.22-.22-.294-.294-.147-.073-.294-.073-.44-.073-.368 0-.589.147-.736.367-.147.22-.22.662-.22 1.176 0 .588.073.956.22 1.25.147.294.441.367.809.367.147 0 .294 0 .367-.073.147-.074.22-.147.368-.294v.44c0 .295-.074.442-.147.589-.074.073-.22.147-.441.147-.147 0-.22-.074-.294-.147a.561.561 0 0 1-.147-.368h-.588c0 .294.073.515.22.662m3.087-5.366h-.514v.588h.514v-.588zm0 1.323h-.514v3.087h.514V29.4zm.882 2.72c.147.22.441.367.882.367.368 0 .662-.147.882-.367.147-.22.294-.662.294-1.25s-.073-.955-.294-1.25c-.147-.22-.44-.367-.882-.367-.367 0-.661.147-.882.368-.147.22-.294.661-.294 1.25.074.587.147 1.028.294 1.249m1.397-2.132c.073.147.147.441.147.882s-.074.735-.147.882a.496.496 0 0 1-.441.294c-.22 0-.368-.073-.441-.294-.074-.147-.147-.44-.147-.882 0-.44.073-.735.147-.882a.496.496 0 0 1 .44-.294c.148.074.295.147.442.294m3.38 2.426v-2.279a.835.835 0 0 0-.22-.588.835.835 0 0 0-.588-.22c-.147 0-.294 0-.44.073-.148.074-.221.147-.368.294v-.367h-.515v3.087h.515v-1.764c0-.368.073-.588.147-.735.073-.147.22-.22.44-.22.221 0 .295.073.368.146.074.074.147.294.147.588v1.985h.515zm1.177-2.279c0-.147.073-.294.147-.367.073-.074.22-.147.44-.147.148 0 .295.073.368.147.074.073.074.294.074.514v.147h-.294c-.441 0-.809.074-1.03.294-.22.147-.367.441-.367.809 0 .294.074.514.22.661a.932.932 0 0 0 .662.294c.147 0 .294 0 .441-.073.147-.074.22-.147.368-.294v.367h.514c0-.147 0-.294-.073-.367V30.28c0-.294-.074-.514-.22-.661-.148-.147-.442-.22-.81-.22-.367 0-.66.073-.808.22-.147.147-.294.367-.294.588v.073l.662-.147zm1.102.956c0 .294-.073.514-.147.661a.667.667 0 0 1-.514.22c-.147 0-.22-.073-.368-.146a.561.561 0 0 1-.147-.368.67.67 0 0 1 .22-.514c.148-.074.442-.147.883-.147v.294h.073zm1.69-3.014h-.514v4.41h.515v-4.41zM348.75 26.46v-1.985h1.47v-.515h-1.47v-1.396h1.543v-.515h-2.132v4.41h.588zm2.057-3.014v2.278c0 .22.074.441.22.588.148.147.368.22.589.22.147 0 .294 0 .44-.073.148-.073.221-.147.368-.294v.368h.515v-3.087h-.515v1.764c0 .367-.073.588-.147.735-.073.147-.22.22-.441.22-.22 0-.294-.073-.367-.147a1.134 1.134 0 0 1-.147-.588v-1.984h-.515zm4.998 3.013v-2.278a.835.835 0 0 0-.22-.588.835.835 0 0 0-.589-.22c-.147 0-.294 0-.44.073-.148.073-.221.147-.368.294v-.368h-.515v3.088h.515v-1.764c0-.367.073-.588.147-.735.073-.147.22-.22.441-.22.22 0 .294.073.367.147.074.073.147.294.147.588v1.984h.515zm1.984-3.013c-.147-.074-.294-.074-.44-.074-.368 0-.589.147-.736.368-.147.294-.22.661-.22 1.25 0 .514.073.955.22 1.175.147.22.441.368.735.368.147 0 .294 0 .441-.074a.574.574 0 0 0 .294-.294v.294h.515v-4.41h-.515v1.69a.574.574 0 0 0-.294-.293m.147.588c.074.147.147.514.147.882 0 .44-.073.735-.147.882-.073.22-.22.294-.44.294-.221 0-.368-.074-.442-.294-.073-.147-.147-.515-.147-.956 0-.367.074-.661.147-.882.074-.22.22-.294.441-.294.22.147.368.22.441.368m1.617 2.131c.147.22.441.368.882.368.368 0 .662-.147.882-.368.147-.22.294-.661.294-1.25 0-.587-.073-.955-.294-1.249-.147-.22-.44-.367-.882-.367a1.22 1.22 0 0 0-.882.367c-.22.22-.294.662-.294 1.25s.074 1.029.294 1.25m1.323-2.132c.074.147.147.44.147.882 0 .44-.073.735-.147.882a.496.496 0 0 1-.44.294c-.221 0-.368-.074-.442-.294-.073-.147-.147-.441-.147-.882s.074-.735.147-.882a.496.496 0 0 1 .441-.294c.22.073.368.147.441.294m4.998 2.425v-.514h-1.617V24.4h1.544v-.514h-1.544V22.49h1.617v-.514h-2.205v4.41h2.205v.073zm.588-3.013v2.278c0 .22.074.441.22.588.148.147.368.22.589.22.147 0 .294 0 .44-.073.148-.073.221-.147.368-.294v.368h.515v-3.087h-.515v1.764c0 .367-.073.588-.147.735-.073.147-.22.22-.44.22-.221 0-.295-.073-.368-.147a1.134 1.134 0 0 1-.147-.588v-1.984h-.515zm2.793 0v3.087h.515v-1.838c0-.294.073-.44.147-.588.147-.147.294-.147.588-.147h.147v-.514h-.147c-.22 0-.368.073-.515.147-.147.073-.22.22-.294.367l-.073-.367h-.368v-.147zm1.985 2.72c.147.22.44.367.882.367.367 0 .661-.147.882-.368.147-.22.294-.661.294-1.25 0-.587-.074-.955-.294-1.249-.147-.22-.441-.367-.882-.367-.368 0-.662.147-.882.367-.22.22-.294.662-.294 1.25s.073 1.029.294 1.25m1.323-2.132c.073.147.147.44.147.882 0 .44-.074.735-.147.882a.496.496 0 0 1-.441.294c-.22 0-.368-.074-.441-.294-.074-.147-.147-.441-.147-.882s.073-.735.147-.882a.496.496 0 0 1 .44-.294c.221 0 .368.147.442.294m1.984 0c.073-.22.22-.294.441-.294.22 0 .367.073.441.294.073.147.147.514.147.955 0 .441-.074.735-.147.882-.074.22-.22.294-.441.294-.22 0-.368-.073-.441-.294a2.383 2.383 0 0 1-.147-.882c0-.44 0-.808.147-.955m-.147 3.601v-1.543c.073.147.22.22.294.294.147.073.294.073.441.073.367 0 .588-.147.735-.367.147-.294.22-.662.22-1.25 0-.514-.073-.955-.22-1.176-.147-.22-.441-.367-.735-.367-.147 0-.294 0-.368.073a.574.574 0 0 0-.294.294v-.294h-.514v4.263h.441zm2.94-3.675c.073-.147.22-.22.44-.22.221 0 .295.073.442.147.073.147.147.294.147.514v.294h-1.176c0-.367.073-.588.147-.735m1.029 1.544c0 .22-.074.367-.22.44a.561.561 0 0 1-.368.148c-.22 0-.368-.074-.441-.22a1.468 1.468 0 0 1-.147-.662v-.147h1.69v-.441c0-.441-.073-.735-.294-.956-.147-.22-.44-.294-.808-.294-.368 0-.662.147-.882.368-.147.22-.294.661-.294 1.176 0 .588.073 1.029.294 1.25.147.22.44.367.882.367.294 0 .588-.074.808-.294.22-.147.294-.441.294-.735h-.514zm1.102-2.058v2.278c0 .22.074.441.22.588.148.147.368.22.589.22.147 0 .294 0 .44-.073.148-.073.221-.147.368-.294v.368h.515v-3.087h-.515v1.764c0 .367-.073.588-.147.735-.073.147-.22.22-.44.22-.221 0-.295-.073-.368-.147a1.134 1.134 0 0 1-.147-.588v-1.984h-.515zM348.235 4.263v2.793c0 .367 0 .588.073.735.074.147.074.294.22.44.148.148.295.295.442.368.147.074.367.147.661.147.515 0 .809-.147 1.03-.367.22-.294.293-.735.293-1.323v-2.72h-.588v3.308c0 .073-.073.22-.073.294a.574.574 0 0 1-.294.294c-.147.073-.22.073-.441.073-.147 0-.294 0-.441-.073a.574.574 0 0 1-.294-.294c-.074-.074-.074-.147-.074-.294V4.263h-.514zm4.336 0h-.808v4.41h.514V4.63l1.69 3.97h.809V4.19h-.515v3.893l-1.69-3.821zm3.528 0h-.588v4.41h.588v-4.41zm2.205.661l.588 2.132h-1.25l.662-2.132zm1.69 3.675l-1.323-4.41h-.735L356.54 8.6h.661l.294-1.102h1.544l.294 1.102h.661zm-1.176-5.586c0 .074-.073.147-.073.147-.074 0-.074.074-.147.074h-.147l-.294-.074h-.147a.561.561 0 0 0-.368.147c-.073.074-.147.22-.22.441h.22c0-.073.074-.147.074-.147s.073-.073.147-.073h.147l.294.073h.147a.561.561 0 0 0 .367-.147c.074-.073.147-.294.22-.44h-.22zm4.337 2.132c-.074-.22-.147-.441-.294-.588-.147-.147-.294-.22-.441-.294-.147-.074-.368-.074-.588-.074-.294 0-.515.074-.735.147a.663.663 0 0 0-.441.441 1.134 1.134 0 0 0-.147.588c0 .22-.074.588-.074 1.103 0 .588 0 1.029.074 1.25.073.22.147.44.294.587.147.147.294.22.44.294.148.074.368.074.589.074.294 0 .514-.074.735-.147a.663.663 0 0 0 .44-.441 1.38 1.38 0 0 0 .148-.588c0-.22.073-.588.073-1.03 0-.587-.073-1.028-.073-1.322m-.735 2.72c-.147.22-.294.293-.662.293-.147 0-.294 0-.44-.073a.574.574 0 0 1-.295-.294c-.073-.074-.073-.22-.073-.441v-.956c0-.514 0-.882.073-1.029 0-.147.074-.294.147-.44l.22-.221c.074-.074.221-.074.368-.074.294 0 .515.074.662.294.147.22.147.735.147 1.47.073.809 0 1.25-.147 1.47m5.218.735v-.514h-1.617v-1.47h1.544V6.1h-1.544V4.704h1.617v-.515h-2.205V8.6h2.205zm.588-4.336v2.793c0 .367 0 .588.074.735.073.147.073.294.22.44.147.148.294.295.441.368.147.074.368.147.662.147.514 0 .808-.147 1.029-.367.22-.294.294-.735.294-1.323v-2.72h-.515v3.308c0 .073-.073.22-.073.294a.574.574 0 0 1-.294.294c-.147.073-.22.073-.441.073-.147 0-.294 0-.441-.073a.574.574 0 0 1-.294-.294c-.074-.074-.074-.147-.074-.294V4.263h-.588zm4.116.44h.662c.22 0 .367.074.514.148.147.147.147.294.147.514 0 .294-.073.441-.22.588-.147.147-.368.22-.662.22h-.441v-1.47zm-.588-.44v4.41h.588V6.615h.662c.22 0 .294.073.367.147.074.073.147.294.147.514v.368c0 .44 0 .808.074.955h.588c-.074-.147-.074-.294-.074-.44v-.882a1.46 1.46 0 0 0-.147-.662c-.073-.147-.294-.22-.514-.22a1.6 1.6 0 0 0 .588-.368c.147-.147.22-.441.22-.735 0-.368-.073-.662-.294-.809-.22-.147-.588-.22-1.029-.22h-1.176zm5.953.882c-.073-.22-.147-.441-.294-.588a1.538 1.538 0 0 0-.44-.294c-.148-.074-.368-.074-.589-.074-.294 0-.514.074-.735.147a.663.663 0 0 0-.44.441 1.139 1.139 0 0 0-.148.588c0 .22-.073.588-.073 1.103 0 .588 0 1.029.073 1.25.074.22.147.44.294.587.147.147.294.22.441.294.147.074.368.074.588.074.294 0 .515-.074.735-.147a.663.663 0 0 0 .441-.441 1.38 1.38 0 0 0 .147-.588c0-.22.074-.588.074-1.03.073-.587 0-1.028-.074-1.322m-.661 2.72c-.147.22-.294.293-.662.293-.147 0-.294 0-.44-.073a.574.574 0 0 1-.295-.294c-.073-.074-.073-.22-.073-.441v-.956c0-.514 0-.882.073-1.029 0-.147.074-.294.147-.44l.221-.221c.073-.074.22-.074.367-.074.294 0 .515.074.662.294.147.22.147.735.147 1.47.073.809 0 1.25-.147 1.47m2.72-3.16c.22 0 .44.073.514.147.073.073.147.294.147.514 0 .294-.074.441-.147.588a1.468 1.468 0 0 1-.662.147h-.44V4.63h.587v.074zm-1.177-.441v4.41h.588V6.688h.735c.368 0 .662-.073.882-.294.147-.22.294-.514.294-.955 0-.441-.073-.735-.294-.956a1.636 1.636 0 0 0-.955-.294h-1.25v.074zm5.219 4.336v-.514h-1.617v-1.47h1.543V6.1h-1.543V4.704h1.617v-.515h-2.205V8.6h2.205zm1.25-4.336h-.589v4.41h.588v-4.41zm2.204.661l.588 2.132h-1.25l.662-2.132zm1.69 3.675l-1.322-4.41h-.662l-1.396 4.41h.661l.294-1.102h1.544l.294 1.102h.588z" id="Shape"/></g></g></svg>