<svg width="422" height="330" preserveAspectRatio="none" xmlns="http://www.w3.org/2000/svg"><g id="Page-1" stroke="none" stroke-width="1" fill="none" fill-rule="evenodd"><g id="major-logo-tall" fill="#FFF"><path d="M71.93 14.553c12.746-17.912 35.674-18.747 43.707-.002 1.483 3.845 2.355 8.695 2.355 14.772V292.03H87.575V35.137c0-12.471-13.269-10.759-13.269-.733l-.045 257.626H43.835V35.137c0-12.401-13.108-10.77-13.255-.892V292.03H.186V5.283h27.085l1.061 11.646C36.832-3 63.807-4.909 71.93 14.553zM313.056.84c35.081 0 37.072 27.882 37.072 45.358v204.985c0 17.476-1.998 45.358-37.08 45.358-35.08 0-37.07-27.882-37.07-45.358V46.197c0-17.475 1.996-45.357 37.078-45.357zm6.623 34.962c0-12.473-13.26-12.473-13.26 0v225.777c0 12.472 13.26 12.472 13.26 0V35.802zm76.305-18.808C402.178 4.844 411.074.807 421.635.807v32.02c-6.453 0-23.402 5.662-23.402 20.22v239.218h-30.394V5.348h27.084l1.062 11.646zM208.475 46.16l.016 234.222 1.06 11.646h-28.145l-1.119-11.6c-8.34 21.257-45.91 24.924-45.91-12.778V163.953c0-51.06 43.678-43.2 43.678-59.31V34.22c0-10.49-12.456-10.49-12.456 0l-.045 67.64h-30.42v-55.7c0-17.475 1.18-45.357 36.26-45.357 35.082 0 37.08 27.882 37.08 45.357zm-30.416 217.045v-118.69s-13.36 4.887-13.255 16.61l-.008 100.106c0 15.954 13.263 5.956 13.263 1.974zm50.132 19.357l-.031-277.28h30.418v279.509c0 38.604-18.116 44.979-40.833 44.268v-25.522c9.453 0 10.446-2.346 10.446-20.975z" id="Combined-Shape"/></g></g></svg>