<svg width="370" height="200" preserveAspectRatio="none" xmlns="http://www.w3.org/2000/svg"><g id="Page-1" stroke="none" stroke-width="1" fill="none" fill-rule="evenodd"><g id="Artboard" fill="#FFF"><path d="M44.801 57.229v113.69H21V34.514h21.207l.836 9.135c6.653-15.633 27.772-17.127 34.133-1.866 9.982-14.047 27.935-14.703 34.225-.002 1.161 3.018 1.844 6.82 1.844 11.587v117.551H89.429V57.93c0-9.781-10.392-8.442-10.392-.579l-.034 113.57H55.178V57.928c0-9.727-10.261-8.448-10.377-.7zm221.174 117.226c-27.469 0-29.026-21.867-29.026-35.572v-72.28c0-13.707 1.565-35.574 29.032-35.574 27.47 0 29.027 21.867 29.027 35.574v72.28c0 13.705-1.564 35.572-29.033 35.572zM260.784 58.45v88.59c0 9.782 10.38 9.782 10.38 0V58.45c0-9.781-10.38-9.781-10.38 0zm48.09 112.654V34.565h21.208l.83 9.133c4.852-9.529 11.814-12.696 20.088-12.696v25.115c-5.053 0-18.326-.008-18.326 11.411v103.575h-23.8zm-146.854-9.28c-6.53 16.669-35.944 19.545-35.944-10.023v-31.53c0-40.044 34.195-33.88 34.195-46.515V57.209c0-8.226-9.75-8.226-9.75 0l-.038 14.364h-23.816v-4.998c0-13.705.924-35.572 28.392-35.572 27.47 0 29.034 21.867 29.034 35.572l.013 95.21.83 9.135h-22.037l-.879-9.098zm-12.122-43.77l-.008 28.714c0 12.511 10.385 4.67 10.385 1.546v-43.286s-10.46 3.833-10.377 13.026zm73.426 47.188c0 30.276-14.185 35.278-31.972 34.72v-20.017c7.4 0 8.177-1.838 8.177-16.45l-.023-128.98h23.818V165.24z" id="Combined-Shape"/></g></g></svg>