<?xml version="1.0" encoding="UTF-8"?>
<svg width="20px" height="16px" viewBox="0 0 20 16" version="1.1" xmlns="http://www.w3.org/2000/svg" xmlns:xlink="http://www.w3.org/1999/xlink">
    <!-- Generator: Sketch 61.1 (89650) - https://sketch.com -->
    <title>Path</title>
    <desc>Created with Sketch.</desc>
    <g id="Case-Study-template" stroke="none" stroke-width="1" fill="none" fill-rule="evenodd">
        <g id="Case_Study_Elsie" transform="translate(-165.000000, -10030.000000)" fill="#071D49" fill-rule="nonzero">
            <g id="Group-23" transform="translate(165.000000, 10026.000000)">
                <g id="Group-12">
                    <g id="left-arrow-(1)" transform="translate(0.000000, 4.000000)">
                        <path d="M18.1207417,6.4893944 L18.1507124,6.49597212 L5.30294937,6.49597212 L9.34181678,2.43485411 C9.53959235,2.23658272 9.64808013,1.96799233 9.64808013,1.68608988 C9.64808013,1.40418743 9.53959235,1.13747639 9.34181678,0.938735159 L8.71336814,0.30790012 C8.51574867,0.109628731 8.25241214,0 7.97159269,0 C7.69061714,0 7.42712452,0.108845668 7.22950505,0.307117058 L0.306111432,7.25272359 C0.107711476,7.45177804 -0.000776305569,7.71692296 0,7.99898202 C-0.000776305569,8.28260721 0.107711476,8.54790873 0.306111432,8.74664996 L7.22950505,15.6928829 C7.42712452,15.8909977 7.69046104,16 7.97159269,16 C8.25241214,16 8.51574867,15.8908411 8.71336814,15.6928829 L9.34181678,15.0620479 C9.53959235,14.8640897 9.64808013,14.5997279 9.64808013,14.3178254 C9.64808013,14.0360796 9.53959235,13.7856563 9.34181678,13.5875415 L5.25736889,9.50371465 L18.1351027,9.50371465 C18.7137562,9.50371465 19.2,9.0033378 19.2,8.42308859 L19.2,7.53086734 C19.2,6.95061813 18.6993952,6.4893944 18.1207417,6.4893944 Z" id="Path"></path>
                    </g>
                </g>
            </g>
        </g>
    </g>
</svg>