<?xml version="1.0" encoding="UTF-8"?>
<svg width="20px" height="16px" viewBox="0 0 20 16" version="1.1" xmlns="http://www.w3.org/2000/svg" xmlns:xlink="http://www.w3.org/1999/xlink">
    <!-- Generator: Sketch 61.1 (89650) - https://sketch.com -->
    <title>Path</title>
    <desc>Created with Sketch.</desc>
    <g id="Case-Study-template" stroke="none" stroke-width="1" fill="none" fill-rule="evenodd">
        <g id="Case_Study_Elsie" transform="translate(-165.000000, -9958.000000)" fill="#071D49" fill-rule="nonzero">
            <path d="M183.120742,9964.48939 L183.150712,9964.49597 L170.302949,9964.49597 L174.341817,9960.43485 C174.539592,9960.23658 174.64808,9959.96799 174.64808,9959.68609 C174.64808,9959.40419 174.539592,9959.13748 174.341817,9958.93874 L173.713368,9958.3079 C173.515749,9958.10963 173.252412,9958 172.971593,9958 C172.690617,9958 172.427125,9958.10885 172.229505,9958.30712 L165.306111,9965.25272 C165.107711,9965.45178 164.999224,9965.71692 165,9965.99898 C164.999224,9966.28261 165.107711,9966.54791 165.306111,9966.74665 L172.229505,9973.69288 C172.427125,9973.891 172.690461,9974 172.971593,9974 C173.252412,9974 173.515749,9973.89084 173.713368,9973.69288 L174.341817,9973.06205 C174.539592,9972.86409 174.64808,9972.59973 174.64808,9972.31783 C174.64808,9972.03608 174.539592,9971.78566 174.341817,9971.58754 L170.257369,9967.50371 L183.135103,9967.50371 C183.713756,9967.50371 184.2,9967.00334 184.2,9966.42309 L184.2,9965.53087 C184.2,9964.95062 183.699395,9964.48939 183.120742,9964.48939 Z" id="Path" transform="translate(174.600000, 9966.000000) scale(-1, 1) translate(-174.600000, -9966.000000) "></path>
        </g>
    </g>
</svg>