<?xml version="1.0" encoding="UTF-8"?>
<svg width="42px" height="42px" viewBox="0 0 42 42" version="1.1" xmlns="http://www.w3.org/2000/svg" xmlns:xlink="http://www.w3.org/1999/xlink">
    <!-- Generator: Sketch 51.2 (57519) - http://www.bohemiancoding.com/sketch -->
    <title>facebook</title>
    <desc>Created with Sketch.</desc>
    <defs></defs>
    <g id="facebook" stroke="none" stroke-width="1" fill="none" fill-rule="evenodd">
        <path d="M30.8116684,1.00832267 L25.6245644,1 C19.7970309,1 16.0310228,4.86379951 16.0310228,10.844054 L16.0310228,15.382822 L10.8156217,15.382822 C10.3649491,15.382822 10,15.7481872 10,16.1988598 L10,22.7750174 C10,23.22569 10.3653652,23.5906391 10.8156217,23.5906391 L16.0310228,23.5906391 L16.0310228,40.1843783 C16.0310228,40.6350509 16.3959718,41 16.8466444,41 L23.6512593,41 C24.1019319,41 24.466881,40.6346348 24.466881,40.1843783 L24.466881,23.5906391 L30.5649012,23.5906391 C31.0155738,23.5906391 31.3805229,23.22569 31.3805229,22.7750174 L31.3830197,16.1988598 C31.3830197,15.9824704 31.29688,15.7752359 31.144159,15.6220988 C30.9914381,15.4689616 30.7833713,15.382822 30.5669819,15.382822 L24.466881,15.382822 L24.466881,11.5352517 C24.466881,9.68595445 24.9075663,8.74715729 27.3165632,8.74715729 L30.8108361,8.74590889 C31.2610926,8.74590889 31.6260416,8.38054368 31.6260416,7.93028724 L31.6260416,1.82394432 C31.6260416,1.37410401 31.2615087,1.00915494 30.8116684,1.00832267 Z" id="Shape" fill="#FFFFFF" fill-rule="nonzero"></path>
    </g>
</svg>