<?xml version="1.0" encoding="UTF-8"?>
<svg width="42px" height="42px" viewBox="0 0 42 42" version="1.1" xmlns="http://www.w3.org/2000/svg" xmlns:xlink="http://www.w3.org/1999/xlink">
    <!-- Generator: Sketch 51.2 (57519) - http://www.bohemiancoding.com/sketch -->
    <title>linkedin</title>
    <desc>Created with Sketch.</desc>
    <defs></defs>
    <g id="linkedin" stroke="none" stroke-width="1" fill="none" fill-rule="evenodd">
        <path d="M38.7996488,3.20035117 C37.3332041,1.7335416 35.5663923,1 33.5005815,1 L8.50005701,1 C6.43424623,1 4.66743438,1.7335416 3.20035117,3.20035117 C1.7335416,4.66743438 1,6.43415502 1,8.50005701 L1,33.5003078 C1,35.5660274 1.7335416,37.3329305 3.20035117,38.8000137 C4.66743438,40.2670969 6.43424623,41.0006385 8.50005701,41.0006385 L33.5003078,41.0006385 C35.5661186,41.0006385 37.3329305,40.2670969 38.7993752,38.8000137 C40.2664584,37.3329305 41,35.5661186 41,33.5003078 L41,8.50005701 C40.9999088,6.43415502 40.2663672,4.66716074 38.7996488,3.20035117 Z M13.1875356,34.4897955 L7.17180125,34.4897955 L7.17180125,16.4165964 L13.1875356,16.4165964 L13.1875356,34.4897955 Z M12.6409824,13.0705083 C12.0160764,13.6695095 11.191321,13.9690557 10.1668985,13.9690557 L10.1406289,13.9690557 C9.15114131,13.9690557 8.34845963,13.6695095 7.73194536,13.0705083 C7.11533989,12.4715071 6.80721957,11.7293914 6.80721957,10.8439787 C6.80721957,9.94123549 7.12427884,9.1945591 7.75775888,8.60413199 C8.39169498,8.01388731 9.21188972,7.71862814 10.218708,7.71862814 C11.2256174,7.71862814 12.032951,8.01388731 12.6407087,8.60413199 C13.248284,9.1945591 13.5608738,9.94123549 13.5781132,10.8439787 C13.578022,11.7290265 13.2658883,12.4711422 12.6409824,13.0705083 Z M34.8284724,34.4897955 L28.812738,34.4897955 L28.812738,24.8284268 C28.812738,22.1030488 27.8061022,20.7399494 25.7921009,20.7399494 C25.0282763,20.7399494 24.3855837,20.9525688 23.8649351,21.3779901 C23.3436481,21.8031378 22.9531617,22.3196817 22.6931111,22.9278043 C22.5713406,23.239938 22.5107746,23.7259253 22.5107746,24.3854924 L22.5107746,34.4897042 L16.4950402,34.4897955 C16.5471233,23.5870066 16.5471233,17.5623332 16.4950402,16.4164139 L22.5107746,16.4164139 L22.5107746,18.9680296 C23.7756368,16.9904225 25.5717283,15.9995667 27.9016031,15.9995667 C29.9849269,15.9995667 31.6605249,16.6854947 32.9278499,18.0568034 C34.195266,19.4283857 34.8288373,21.4512348 34.8288373,24.124256 L34.8288373,34.4897955 L34.8284724,34.4897955 Z" id="Shape" fill="#FFFFFF" fill-rule="nonzero"></path>
    </g>
</svg>