<?xml version="1.0" encoding="UTF-8"?>
<svg width="370px" height="200px" viewBox="0 0 370 200" preserveAspectRatio="none" version="1.1" xmlns="http://www.w3.org/2000/svg" xmlns:xlink="http://www.w3.org/1999/xlink">
    <!-- Generator: Sketch 47 (45396) - http://www.bohemiancoding.com/sketch -->
    <title>Artboard</title>
    <desc>Created with Sketch.</desc>
    <defs></defs>
    <g id="Page-1" stroke="none" stroke-width="1" fill="none" fill-rule="evenodd">
        <g id="Artboard" fill="#FFFFFF">
            <path d="M44.8010264,57.2285665 L44.8010264,170.919114 L21,170.919114 L21,34.5136163 L42.2072292,34.5136163 L43.0426146,43.6485301 C49.695863,28.015893 70.8154512,26.5217341 77.1759418,41.7826992 C87.157679,27.7357382 105.111007,27.080176 111.400639,41.7808315 C112.562347,44.7990324 113.244827,48.6016667 113.244827,53.3680335 L113.244827,170.919114 L89.4288832,170.919114 L89.4288832,57.9289534 C89.4288832,48.147816 79.036912,49.4869558 79.036912,57.3499669 L79.0033474,170.919114 L55.1780799,170.919114 L55.1780799,57.9289534 C55.1780799,48.2019792 44.9166378,49.4813528 44.8010264,57.2285665 Z M265.975103,174.455415 C238.506213,174.455415 236.949189,152.5884 236.949189,138.883228 L236.949189,66.6032927 C236.949189,52.8962528 238.513672,31.0292379 265.980698,31.0292379 C293.451453,31.0292379 295.008477,52.8962528 295.008477,66.6032927 L295.008477,138.883228 C295.008477,152.5884 293.443994,174.455415 265.975103,174.455415 Z M260.78378,58.4489207 L260.78378,147.039468 C260.78378,156.820605 271.164563,156.820605 271.164563,147.039468 L271.164563,58.4489207 C271.164563,48.6677833 260.78378,48.6677833 260.78378,58.4489207 Z M308.87457,171.103456 L308.87457,34.5653516 L330.081799,34.5653516 L330.911591,43.6983976 C335.763539,34.1693995 342.726328,31.0017827 351,31.0017827 L351,56.1167255 C345.946664,56.1167255 332.673732,56.1092547 332.673732,67.5283638 L332.673732,171.103456 L308.87457,171.103456 Z M162.020335,161.822302 C155.490157,178.491512 126.076385,181.367767 126.076385,151.800231 L126.076385,120.269744 C126.076385,80.2262862 160.271247,86.3896915 160.271247,73.7547106 L160.271247,57.2087689 C160.271247,48.9834243 150.520733,48.9834243 150.520733,57.2087689 L150.483439,71.5732386 L126.667495,71.5732386 L126.667495,66.5752772 C126.667495,52.8701051 127.590521,31.0030901 155.059412,31.0030901 C182.528302,31.0030901 184.092785,52.8701051 184.092785,66.5752772 L184.105838,161.784948 L184.935629,170.919862 L162.898609,170.919862 L162.020335,161.822302 Z M149.897923,118.052786 L149.890464,146.766784 C149.890464,159.278496 160.274977,151.437898 160.274977,148.313238 L160.274977,105.027456 C160.274977,105.027456 149.815876,108.859973 149.897923,118.052786 Z M223.324201,165.241498 C223.324201,195.516892 209.139431,200.518588 191.352061,199.960146 L191.352061,179.944021 C198.751189,179.944021 199.528769,178.106205 199.528769,163.493332 L199.506393,34.5138031 L223.324201,34.5138031 L223.324201,165.241498 Z" id="Combined-Shape"></path>
        </g>
    </g>
</svg>