<?xml version="1.0" encoding="UTF-8"?>
<svg width="561px" height="542px" viewBox="0 0 561 542" version="1.1" xmlns="http://www.w3.org/2000/svg" xmlns:xlink="http://www.w3.org/1999/xlink">
    <!-- Generator: Sketch 52.5 (67469) - http://www.bohemiancoding.com/sketch -->
    <title>Group 12</title>
    <desc>Created with Sketch.</desc>
    <g id="Hi-Fi" stroke="none" stroke-width="1" fill="none" fill-rule="evenodd">
        <g id="Extra-large:-Desktops---About---22-Aug-Copy" transform="translate(-162.000000, -5342.000000)">
            <g id="Group-12" transform="translate(165.000000, 5345.000000)">
                <ellipse id="Oval-Copy-3" stroke="#071D49" stroke-width="5" fill="#2A80CC" fill-rule="nonzero" transform="translate(339.500000, 321.000000) scale(-1, 1) translate(-339.500000, -321.000000) " cx="339.5" cy="321" rx="215.5" ry="215"></ellipse>
                <ellipse id="Oval" stroke="#071D49" stroke-width="5" fill="#F82A54" fill-rule="nonzero" transform="translate(175.000000, 176.000000) scale(-1, 1) translate(-175.000000, -176.000000) " cx="175" cy="176" rx="175" ry="176"></ellipse>
                <ellipse id="Combined-Shape" stroke="#071D49" stroke-width="5" fill="#2A80CC" fill-rule="nonzero" cx="339.5" cy="321" rx="215.5" ry="215"></ellipse>
                <path d="M124.309509,344.687153 C123.444192,336.874137 123,328.935013 123,320.892717 C123,203.412202 217.785592,107.94714 335.455123,106 C344.810984,127.501709 350,151.242022 350,176.196721 C350,273.290191 271.447427,352 174.547917,352 C157.088778,352 140.225256,349.444762 124.309509,344.687153 Z" id="Combined-Shape" stroke="#071D49" stroke-width="5" fill="#FFCE38" fill-rule="nonzero"></path>
                <polygon id="+" fill="#071D49" points="241.832461 241.488998 237 241.488998 237 238.476773 241.832461 238.476773 241.832461 233 245.065445 233 245.065445 238.476773 250 238.476773 250 241.488998 245.065445 241.488998 245.065445 247 241.832461 247"></polygon>
                <path d="M193.710628,222.575269 C194.967423,222.575269 195.857639,222.464607 196.381303,222.24328 C196.904968,222.021952 197.166796,221.596777 197.166796,220.967742 C197.166796,220.548385 196.922423,219.360225 196.43367,217.403226 L192,200.314516 L196.608223,200.314516 L199.226532,213.663978 L201.495733,200.314516 L206.069046,200.314516 L201.35609,221.317204 C200.960432,223.01793 200.209858,224.223563 199.104344,224.93414 C197.998831,225.644717 196.503501,226 194.618309,226 L193.710628,226 L193.710628,222.575269 Z M214.377812,220.827957 C212.213333,220.827957 210.595816,220.228053 209.525213,219.028226 C208.454611,217.828399 207.919317,216.086929 207.919317,213.803763 L207.919317,207.024194 C207.919317,204.741028 208.454611,202.999558 209.525213,201.799731 C210.595816,200.599904 212.213333,200 214.377812,200 C216.542292,200 218.165627,200.599904 219.247867,201.799731 C220.330106,202.999558 220.871218,204.741028 220.871218,207.024194 L220.871218,213.803763 C220.871218,216.086929 220.330106,217.828399 219.247867,219.028226 C218.165627,220.228053 216.542292,220.827957 214.377812,220.827957 Z M214.412723,217.543011 C215.134216,217.543011 215.611325,217.257619 215.844065,216.686828 C216.076805,216.116037 216.193173,215.271511 216.193173,214.153226 L216.193173,206.709677 C216.193173,205.591392 216.076805,204.741042 215.844065,204.158602 C215.611325,203.576162 215.134216,203.284946 214.412723,203.284946 C213.667956,203.284946 213.17921,203.576162 212.94647,204.158602 C212.71373,204.741042 212.597362,205.591392 212.597362,206.709677 L212.597362,214.153226 C212.597362,215.271511 212.71373,216.116037 212.94647,216.686828 C213.17921,217.257619 213.667956,217.543011 214.412723,217.543011 Z M227.399535,220.827957 C226.25911,220.827957 225.409623,220.408606 224.851047,219.569892 C224.292472,218.731179 224.013189,217.671153 224.013189,216.389785 L224.013189,200.314516 L228.726144,200.314516 L228.726144,215.516129 C228.726144,216.145164 228.830876,216.622758 229.040341,216.948925 C229.249807,217.275091 229.610548,217.438172 230.122576,217.438172 C230.657877,217.438172 231.367722,217.123659 232.252133,216.494624 L232.252133,200.314516 L237,200.314516 L237,220.513441 L232.252133,220.513441 L232.252133,218.591398 C230.692777,220.082445 229.075261,220.827957 227.399535,220.827957 Z" id="you" fill="#071D49"></path>
                <path d="M268.389785,272 C267.248202,272 266.397852,271.570703 265.83871,270.712095 C265.279567,269.853488 265,268.76832 265,267.456559 L265,251 L269.717742,251 L269.717742,266.562181 C269.717742,267.206136 269.82258,267.695058 270.032258,268.028961 C270.241937,268.362864 270.603044,268.529813 271.115591,268.529813 C271.651436,268.529813 272.362003,268.20784 273.247312,267.563884 L273.247312,251 L278,251 L278,271.678024 L273.247312,271.678024 L273.247312,269.710392 C271.686372,271.236805 270.067213,272 268.389785,272 Z M287.303371,272 C285.662913,272 284.314612,271.541951 283.258427,270.625839 C282.202242,269.709727 281.44944,268.370814 281,266.60906 L284.404494,265.234899 C284.921351,267.513434 285.865162,268.652685 287.235955,268.652685 C287.752812,268.652685 288.151684,268.511746 288.432584,268.229866 C288.713485,267.947985 288.853933,267.560405 288.853933,267.067114 C288.853933,266.526843 288.696631,266.027687 288.382022,265.569631 C288.067414,265.111575 287.505622,264.530205 286.696629,263.825503 L284.370787,261.711409 C283.382018,260.865768 282.651688,260.043628 282.179775,259.244966 C281.707863,258.446305 281.47191,257.471482 281.47191,256.32047 C281.47191,254.723146 281.994377,253.437085 283.039326,252.462248 C284.084275,251.487411 285.404486,251 287,251 C288.528098,251 289.775276,251.475666 290.741573,252.427013 C291.70787,253.37836 292.337077,254.664421 292.629213,256.285235 L289.629213,257.624161 C289.449437,256.684559 289.151687,255.915271 288.735955,255.316275 C288.320223,254.717279 287.78652,254.417785 287.134831,254.417785 C286.662919,254.417785 286.286518,254.570468 286.005618,254.875839 C285.724718,255.18121 285.58427,255.56879 285.58427,256.038591 C285.58427,256.414431 285.741571,256.813756 286.05618,257.236577 C286.370788,257.659398 286.842693,258.152682 287.47191,258.716443 L289.831461,260.971477 C290.842702,261.887588 291.623593,262.76258 292.174157,263.596477 C292.724722,264.430373 293,265.434558 293,266.60906 C293,268.323834 292.466297,269.651002 291.398876,270.590604 C290.331455,271.530206 288.9663,272 287.303371,272 Z" id="us" fill="#071D49"></path>
            </g>
        </g>
    </g>
</svg>