<?xml version="1.0" encoding="UTF-8"?>
<svg width="585px" height="590px" viewBox="0 0 585 590" version="1.1" xmlns="http://www.w3.org/2000/svg" xmlns:xlink="http://www.w3.org/1999/xlink">
    <!-- Generator: Sketch 52.2 (67145) - http://www.bohemiancoding.com/sketch -->
    <title>major_process_illus</title>
    <desc>Created with Sketch.</desc>
    <g id="major_process_illus" stroke="none" stroke-width="1" fill="none" fill-rule="evenodd">
        <g id="Group-4" transform="translate(231.000000, 62.000000)" fill-rule="nonzero">
            <polygon id="Path-6" fill="#2A80CC" transform="translate(50.500000, 32.000000) scale(-1, 1) translate(-50.500000, -32.000000) " points="49.9980576 5 67.5 42.6513761 60.5905539 48.1009174 60.5905539 59 39.4847443 59 39.4847443 48.1009174 33.5 40.1743119"></polygon>
            <g id="Group-14" transform="translate(50.500000, 94.000000) scale(-1, 1) translate(-50.500000, -94.000000) translate(0.000000, 0.000000)">
                <g id="Group-13" transform="translate(4.000000, 0.000000)">
                    <g id="Group-12" transform="translate(28.959811, 2.564430)" stroke="#000000" stroke-width="5">
                        <polyline id="Path-3" points="17.5509455 0.4103088 34.8721532 40.2991575 28.3413686 48.2692235 28.3413686 51.9839778"></polyline>
                        <polyline id="Path" points="6.58362041 51.9839778 6.58362041 48.2692235 0.0528358441 40.2991575 17.3740435 0.4103088"></polyline>
                    </g>
                    <path d="M46.165323,3.077316 L46.165323,34.9734898" id="Path-4" stroke="#000000" stroke-width="5"></path>
                    <ellipse id="Oval" fill="#1F0824" cx="46.2839835" cy="36.671349" rx="3.36140662" ry="3.333759"></ellipse>
                    <ellipse id="Oval-Copy" fill="#1F0824" cx="93.3436761" cy="3.333759" rx="3.36140662" ry="3.333759"></ellipse>
                    <rect id="Rectangle" stroke="#000000" stroke-width="5" fill="#F82A54" x="28.4426714" y="54.878802" width="34.6483452" height="11.283492"></rect>
                    <g id="Group-11" transform="translate(30.511229, 64.623636)" fill="#FFCE38" stroke="#000000" stroke-width="5">
                        <path d="M2.58616596,2.83039415 L6.55382076,119.897262 L25.508827,119.897262 L29.4764818,2.83039415 L2.58616596,2.83039415 Z" id="Rectangle"></path>
                    </g>
                    <path d="M93.0851064,50.775714 C93.0851064,24.4326162 72.2472955,3.077316 46.5425532,3.077316 C20.8378108,3.077316 0,24.4326162 0,50.775714" id="Path" stroke="#000000" stroke-width="4"></path>
                    <rect id="Rectangle-Copy-31" fill="#000000" x="42.9225768" y="0" width="8.02600473" height="7.95999071"></rect>
                    <rect id="Rectangle-Copy-30" fill="#000000" x="89.9822695" y="50.775714" width="6.72281324" height="6.66751799"></rect>
                    <path d="M0,3.333759 L93.0851064,3.333759" id="Path-5" stroke="#000000" stroke-width="4"></path>
                </g>
                <circle id="Oval-Copy-2" fill="#1F0824" cx="3.5" cy="3.5" r="3.5"></circle>
                <rect id="Rectangle" fill="#000000" x="0" y="51" width="7" height="7"></rect>
            </g>
        </g>
        <path d="M272.464,519.56 L275.992,519.56 L275.992,536.576 L280.72,536.576 L280.72,539 L272.464,539 L272.464,519.56 Z M286.552,539.216 C285.015992,539.216 283.888004,538.788004 283.168,537.932 C282.447996,537.075996 282.088,535.808008 282.088,534.128 L282.088,530 C282.088,528.303992 282.451996,527.032004 283.18,526.184 C283.908004,525.335996 285.031992,524.912 286.552,524.912 C288.120008,524.912 289.227997,525.351996 289.876,526.232 C290.524003,527.112004 290.848,528.439991 290.848,530.216 L290.848,532.208 L285.328,532.208 L285.328,534.944 C285.328,535.616003 285.427999,536.103998 285.628,536.408 C285.828001,536.712002 286.143998,536.864 286.576,536.864 C286.992002,536.864 287.291999,536.716001 287.476,536.42 C287.660001,536.123999 287.752,535.672003 287.752,535.064 L287.752,533.888 L290.824,533.888 L290.824,534.848 C290.824,536.272007 290.464004,537.355996 289.744,538.1 C289.023996,538.844004 287.960007,539.216 286.552,539.216 Z M287.752,530.6 L287.752,529.28 C287.752,528.559996 287.664001,528.044002 287.488,527.732 C287.311999,527.419998 287.000002,527.264 286.552,527.264 C286.087998,527.264 285.768001,527.431998 285.592,527.768 C285.415999,528.104002 285.328,528.727995 285.328,529.64 L285.328,530.6 L287.752,530.6 Z M295.744,539.216 C295.151997,539.216 294.628002,539.056002 294.172,538.736 C293.715998,538.415998 293.364001,538.004003 293.116,537.5 C292.867999,536.995997 292.744,536.472003 292.744,535.928 C292.744,534.855995 292.995997,533.972003 293.5,533.276 C294.004003,532.579997 294.627996,532.040002 295.372,531.656 C296.116004,531.271998 297.103994,530.848002 298.336,530.384 L298.336,529.184 C298.336,528.543997 298.260001,528.076001 298.108,527.78 C297.955999,527.483999 297.664002,527.336 297.232,527.336 C296.495996,527.336 296.112,527.847995 296.08,528.872 L296.032,529.712 L292.936,529.592 C292.984,527.991992 293.379996,526.812004 294.124,526.052 C294.868004,525.291996 295.991992,524.912 297.496,524.912 C298.856007,524.912 299.863997,525.283996 300.52,526.028 C301.176003,526.772004 301.504,527.823993 301.504,529.184 L301.504,535.592 C301.504,536.584005 301.583999,537.719994 301.744,539 L298.816,539 C298.655999,538.135996 298.544,537.472002 298.48,537.008 C298.287999,537.632003 297.964002,538.155998 297.508,538.58 C297.051998,539.004002 296.464004,539.216 295.744,539.216 Z M296.944,536.792 C297.216001,536.792 297.475999,536.696001 297.724,536.504 C297.972001,536.311999 298.175999,536.104001 298.336,535.88 L298.336,531.992 C297.487996,532.488002 296.856002,532.963998 296.44,533.42 C296.023998,533.876002 295.816,534.447997 295.816,535.136 C295.816,535.648003 295.915999,536.051999 296.116,536.348 C296.316001,536.644001 296.591998,536.792 296.944,536.792 Z M303.976,525.128 L307.24,525.128 L307.24,527.264 C307.704002,526.447996 308.175998,525.860002 308.656,525.5 C309.136002,525.139998 309.671997,524.96 310.264,524.96 C310.472001,524.96 310.639999,524.976 310.768,525.008 L310.768,528.392 C310.255997,528.199999 309.808002,528.104 309.424,528.104 C308.559996,528.104 307.832003,528.551996 307.24,529.448 L307.24,539 L303.976,539 L303.976,525.128 Z M312.376,525.128 L315.64,525.128 L315.64,526.496 C316.744006,525.439995 317.863994,524.912 319,524.912 C319.784004,524.912 320.371998,525.199997 320.764,525.776 C321.156002,526.352003 321.352,527.079996 321.352,527.96 L321.352,539 L318.088,539 L318.088,528.608 C318.088,528.159998 318.020001,527.832001 317.884,527.624 C317.747999,527.415999 317.504002,527.312 317.152,527.312 C316.767998,527.312 316.264003,527.535998 315.64,527.984 L315.64,539 L312.376,539 L312.376,525.128 Z" id="Learn-Copy-2" fill="#000000"></path>
        <path d="M449.752,221.56 L453.424,221.56 L456.184,235.024 L459.04,221.56 L462.616,221.56 L462.976,241 L460.336,241 L460.048,227.488 L457.288,241 L455.152,241 L452.344,227.44 L452.08,241 L449.416,241 L449.752,221.56 Z M469.84,241.216 C468.303992,241.216 467.176004,240.788004 466.456,239.932 C465.735996,239.075996 465.376,237.808008 465.376,236.128 L465.376,232 C465.376,230.303992 465.739996,229.032004 466.468,228.184 C467.196004,227.335996 468.319992,226.912 469.84,226.912 C471.408008,226.912 472.515997,227.351996 473.164,228.232 C473.812003,229.112004 474.136,230.439991 474.136,232.216 L474.136,234.208 L468.616,234.208 L468.616,236.944 C468.616,237.616003 468.715999,238.103998 468.916,238.408 C469.116001,238.712002 469.431998,238.864 469.864,238.864 C470.280002,238.864 470.579999,238.716001 470.764,238.42 C470.948001,238.123999 471.04,237.672003 471.04,237.064 L471.04,235.888 L474.112,235.888 L474.112,236.848 C474.112,238.272007 473.752004,239.355996 473.032,240.1 C472.311996,240.844004 471.248007,241.216 469.84,241.216 Z M471.04,232.6 L471.04,231.28 C471.04,230.559996 470.952001,230.044002 470.776,229.732 C470.599999,229.419998 470.288002,229.264 469.84,229.264 C469.375998,229.264 469.056001,229.431998 468.88,229.768 C468.703999,230.104002 468.616,230.727995 468.616,231.64 L468.616,232.6 L471.04,232.6 Z M479.032,241.216 C478.439997,241.216 477.916002,241.056002 477.46,240.736 C477.003998,240.415998 476.652001,240.004003 476.404,239.5 C476.155999,238.995997 476.032,238.472003 476.032,237.928 C476.032,236.855995 476.283997,235.972003 476.788,235.276 C477.292003,234.579997 477.915996,234.040002 478.66,233.656 C479.404004,233.271998 480.391994,232.848002 481.624,232.384 L481.624,231.184 C481.624,230.543997 481.548001,230.076001 481.396,229.78 C481.243999,229.483999 480.952002,229.336 480.52,229.336 C479.783996,229.336 479.4,229.847995 479.368,230.872 L479.32,231.712 L476.224,231.592 C476.272,229.991992 476.667996,228.812004 477.412,228.052 C478.156004,227.291996 479.279992,226.912 480.784,226.912 C482.144007,226.912 483.151997,227.283996 483.808,228.028 C484.464003,228.772004 484.792,229.823993 484.792,231.184 L484.792,237.592 C484.792,238.584005 484.871999,239.719994 485.032,241 L482.104,241 C481.943999,240.135996 481.832,239.472002 481.768,239.008 C481.575999,239.632003 481.252002,240.155998 480.796,240.58 C480.339998,241.004002 479.752004,241.216 479.032,241.216 Z M480.232,238.792 C480.504001,238.792 480.763999,238.696001 481.012,238.504 C481.260001,238.311999 481.463999,238.104001 481.624,237.88 L481.624,233.992 C480.775996,234.488002 480.144002,234.963998 479.728,235.42 C479.311998,235.876002 479.104,236.447997 479.104,237.136 C479.104,237.648003 479.203999,238.051999 479.404,238.348 C479.604001,238.644001 479.879998,238.792 480.232,238.792 Z M490.96,241.216 C489.791994,241.216 488.832004,240.904003 488.08,240.28 C487.327996,239.655997 486.792002,238.744006 486.472,237.544 L488.896,236.608 C489.264002,238.160008 489.935995,238.936 490.912,238.936 C491.280002,238.936 491.563999,238.840001 491.764,238.648 C491.964001,238.455999 492.064,238.192002 492.064,237.856 C492.064,237.487998 491.952001,237.148002 491.728,236.836 C491.503999,236.523998 491.104003,236.128002 490.528,235.648 L488.872,234.208 C488.167996,233.631997 487.648002,233.072003 487.312,232.528 C486.975998,231.983997 486.808,231.320004 486.808,230.536 C486.808,229.447995 487.179996,228.572003 487.924,227.908 C488.668004,227.243997 489.607994,226.912 490.744,226.912 C491.832005,226.912 492.719997,227.235997 493.408,227.884 C494.096003,228.532003 494.543999,229.407994 494.752,230.512 L492.616,231.424 C492.487999,230.783997 492.276001,230.260002 491.98,229.852 C491.683999,229.443998 491.304002,229.24 490.84,229.24 C490.503998,229.24 490.236001,229.343999 490.036,229.552 C489.835999,229.760001 489.736,230.023998 489.736,230.344 C489.736,230.600001 489.847999,230.871999 490.072,231.16 C490.296001,231.448001 490.631998,231.783998 491.08,232.168 L492.76,233.704 C493.480004,234.328003 494.035998,234.923997 494.428,235.492 C494.820002,236.060003 495.016,236.743996 495.016,237.544 C495.016,238.712006 494.636004,239.615997 493.876,240.256 C493.115996,240.896003 492.144006,241.216 490.96,241.216 Z M499.024,241.216 C498.239996,241.216 497.656002,240.928003 497.272,240.352 C496.887998,239.775997 496.696,239.048004 496.696,238.168 L496.696,227.128 L499.936,227.128 L499.936,237.568 C499.936,238.000002 500.007999,238.327999 500.152,238.552 C500.296001,238.776001 500.543998,238.888 500.896,238.888 C501.264002,238.888 501.751997,238.672002 502.36,238.24 L502.36,227.128 L505.624,227.128 L505.624,241 L502.36,241 L502.36,239.68 C501.287995,240.704005 500.176006,241.216 499.024,241.216 Z M508.216,227.128 L511.48,227.128 L511.48,229.264 C511.944002,228.447996 512.415998,227.860002 512.896,227.5 C513.376002,227.139998 513.911997,226.96 514.504,226.96 C514.712001,226.96 514.879999,226.976 515.008,227.008 L515.008,230.392 C514.495997,230.199999 514.048002,230.104 513.664,230.104 C512.799996,230.104 512.072003,230.551996 511.48,231.448 L511.48,241 L508.216,241 L508.216,227.128 Z M520.816,241.216 C519.279992,241.216 518.152004,240.788004 517.432,239.932 C516.711996,239.075996 516.352,237.808008 516.352,236.128 L516.352,232 C516.352,230.303992 516.715996,229.032004 517.444,228.184 C518.172004,227.335996 519.295992,226.912 520.816,226.912 C522.384008,226.912 523.491997,227.351996 524.14,228.232 C524.788003,229.112004 525.112,230.439991 525.112,232.216 L525.112,234.208 L519.592,234.208 L519.592,236.944 C519.592,237.616003 519.691999,238.103998 519.892,238.408 C520.092001,238.712002 520.407998,238.864 520.84,238.864 C521.256002,238.864 521.555999,238.716001 521.74,238.42 C521.924001,238.123999 522.016,237.672003 522.016,237.064 L522.016,235.888 L525.088,235.888 L525.088,236.848 C525.088,238.272007 524.728004,239.355996 524.008,240.1 C523.287996,240.844004 522.224007,241.216 520.816,241.216 Z M522.016,232.6 L522.016,231.28 C522.016,230.559996 521.928001,230.044002 521.752,229.732 C521.575999,229.419998 521.264002,229.264 520.816,229.264 C520.351998,229.264 520.032001,229.431998 519.856,229.768 C519.679999,230.104002 519.592,230.727995 519.592,231.64 L519.592,232.6 L522.016,232.6 Z" id="Measure" fill="#000000"></path>
        <path d="M111.464,187.56 L116.264,187.56 C118.104009,187.56 119.511995,187.935996 120.488,188.688 C121.464005,189.440004 121.952,190.727991 121.952,192.552 C121.952,193.736006 121.712002,194.659997 121.232,195.324 C120.751998,195.988003 120.056005,196.391999 119.144,196.536 C121.384011,196.968002 122.504,198.567986 122.504,201.336 C122.504,203.208009 122.048005,204.619995 121.136,205.572 C120.223995,206.524005 118.872009,207 117.08,207 L111.464,207 L111.464,187.56 Z M116.216,195.504 C117.240005,195.504 117.939998,195.276002 118.316,194.82 C118.692002,194.363998 118.88,193.624005 118.88,192.6 C118.88,191.607995 118.636002,190.932002 118.148,190.572 C117.659998,190.211998 116.848006,190.032 115.712,190.032 L114.992,190.032 L114.992,195.504 L116.216,195.504 Z M116.36,204.504 C117.400005,204.504 118.119998,204.256002 118.52,203.76 C118.920002,203.263998 119.12,202.448006 119.12,201.312 C119.12,200.143994 118.900002,199.292003 118.46,198.756 C118.019998,198.219997 117.280005,197.952 116.24,197.952 L114.992,197.952 L114.992,204.504 L116.36,204.504 Z M126.848,207.216 C126.063996,207.216 125.480002,206.928003 125.096,206.352 C124.711998,205.775997 124.52,205.048004 124.52,204.168 L124.52,193.128 L127.76,193.128 L127.76,203.568 C127.76,204.000002 127.831999,204.327999 127.976,204.552 C128.120001,204.776001 128.367998,204.888 128.72,204.888 C129.088002,204.888 129.575997,204.672002 130.184,204.24 L130.184,193.128 L133.448,193.128 L133.448,207 L130.184,207 L130.184,205.68 C129.111995,206.704005 128.000006,207.216 126.848,207.216 Z M136.064,188.208 L139.328,188.208 L139.328,190.92 L136.064,190.92 L136.064,188.208 Z M136.064,193.128 L139.328,193.128 L139.328,207 L136.064,207 L136.064,193.128 Z M142.136,187.56 L145.376,187.56 L145.376,207 L142.136,207 L142.136,187.56 Z M151.088,207.216 C149.967994,207.216 149.132003,206.820004 148.58,206.028 C148.027997,205.235996 147.752,203.984009 147.752,202.272 L147.752,198.024 C147.752,196.455992 148.011997,195.212005 148.532,194.292 C149.052003,193.371995 149.895994,192.912 151.064,192.912 C151.960004,192.912 152.791996,193.279996 153.56,194.016 L153.56,187.56 L156.848,187.56 L156.848,207 L153.56,207 L153.56,206.016 C152.791996,206.816004 151.968004,207.216 151.088,207.216 Z M152.264,204.96 C152.680002,204.96 153.111998,204.808002 153.56,204.504 L153.56,195.6 C153.143998,195.295998 152.712002,195.144 152.264,195.144 C151.431996,195.144 151.016,195.871993 151.016,197.328 L151.016,202.512 C151.016,203.296004 151.103999,203.899998 151.28,204.324 C151.456001,204.748002 151.783998,204.96 152.264,204.96 Z" id="Build" fill="#000000"></path>
        <g id="Group-3" transform="translate(436.000000, 410.000000) scale(1, -1) translate(-436.000000, -410.000000) translate(312.000000, 377.000000)" fill-rule="nonzero" stroke="#000000" stroke-width="5">
            <g id="Group-11" transform="translate(124.185484, 32.680851) rotate(90.000000) translate(-124.185484, -32.680851) translate(91.685484, -90.819149)">
                <rect id="Rectangle" fill="#F82A54" x="2.5" y="2.5" width="59.6382979" height="241.370968"></rect>
                <rect id="Rectangle" fill="#FFCE38" x="45.2446809" y="2.5" width="16.893617" height="241.370968"></rect>
            </g>
            <ellipse id="Oval" fill="#2A80CC" transform="translate(21.808511, 19.919355) rotate(90.000000) translate(-21.808511, -19.919355) " cx="21.8085106" cy="19.9193548" rx="6.93548387" ry="6.88297872"></ellipse>
        </g>
        <path id="Path" d="M443.717655,348.542119 L451.832954,335.557616 L455.224949,337.677609 L443.063107,357.136594 L441.178669,360.151701 L439.580526,356.975553 L429.266386,336.477235 L432.839553,334.679325 L439.721925,348.357349 L440.286098,336.15689 C439.421803,263.562357 388.921393,201.404786 319.065155,185.044563 L319.977268,181.149945 C391.634434,197.931942 443.42688,261.698675 444.286506,336.168303 L444.284505,336.283774 L443.717655,348.542119 Z" fill="#000000" fill-rule="nonzero"></path>
        <path id="Path" d="M222.657324,486.771502 L233.239813,497.837953 L230.348878,500.602459 L214.489628,484.017928 L212.032289,481.448209 L215.504436,480.682592 L237.913082,475.741431 L238.774401,479.647597 L223.821661,482.944712 L235.5256,486.505747 C247.516906,489.387953 259.880293,490.858215 272.437873,490.85784 C311.712401,490.856664 348.73343,476.414902 377.383244,450.742279 L380.052651,453.72125 C350.676042,480.045141 312.707219,494.856635 272.437993,494.85784 C259.544399,494.858225 246.847335,493.345839 234.532031,490.380844 L234.418,490.349799 L222.657324,486.771502 Z" fill="#000000" fill-rule="nonzero"></path>
        <path id="Path" d="M230.553764,175.688784 L215.419678,173.361808 L216.027563,169.408269 L238.707981,172.895548 L242.222239,173.43589 L239.935551,176.158579 L225.177659,193.73035 L222.114634,191.157826 L231.962213,179.432615 L220.58506,183.712761 C175.172302,203.938242 141.647576,244.731385 130.930107,293.452038 L127.023511,292.592673 C138.019407,242.606316 172.416611,200.765923 219.012609,180.034321 L219.12139,179.989704 L230.553764,175.688784 Z" fill="#000000" fill-rule="nonzero"></path>
        <g id="Group-2" transform="translate(25.000000, 303.000000)">
            <g id="Group" transform="translate(4.169697, 0.000000)">
                <path d="" id="Path-7" stroke="#979797" fill-rule="nonzero"></path>
                <rect id="Rectangle-Copy" fill="#FFCE38" fill-rule="nonzero" x="36.4848485" y="4.54935622" width="126.784848" height="203.811159"></rect>
                <rect id="Rectangle" fill="#000000" fill-rule="nonzero" x="163.269697" y="0" width="4.56060606" height="211.090129"></rect>
                <rect id="Rectangle" fill="#000000" fill-rule="nonzero" x="12.769697" y="0" width="155.060606" height="5.45922747"></rect>
                <rect id="Rectangle-Copy-2" fill="#000000" fill-rule="nonzero" x="34.6606061" y="206.540773" width="133.169697" height="5.45922747"></rect>
                <rect id="Rectangle" stroke="#000000" stroke-width="5" fill="#2A80CC" fill-rule="nonzero" x="65.4363636" y="50.723176" width="72.530303" height="36.8540773"></rect>
                <rect id="Rectangle" fill="#000000" x="79.3545455" y="61.8712446" width="45.6060606" height="4.54935622"></rect>
                <rect id="Rectangle" fill="#000000" x="79.3545455" y="71.8798283" width="45.6060606" height="4.54935622"></rect>
                <rect id="Rectangle" fill="#F82A54" fill-rule="nonzero" x="0" y="4.54935622" width="31.9242424" height="203.811159"></rect>
            </g>
            <rect id="Rectangle" stroke="#000000" stroke-width="5" fill-rule="nonzero" x="2.5" y="2.5" width="35.6545455" height="207"></rect>
        </g>
    </g>
</svg>