<?xml version="1.0" encoding="UTF-8"?>
<svg width="255px" height="400px" viewBox="0 0 255 400" version="1.1" xmlns="http://www.w3.org/2000/svg" xmlns:xlink="http://www.w3.org/1999/xlink">
    <!-- Generator: Sketch 52.4 (67378) - http://www.bohemiancoding.com/sketch -->
    <title>major_ui_illus</title>
    <desc>Created with Sketch.</desc>
    <g id="major_ui_illus" stroke="none" stroke-width="1" fill="none" fill-rule="evenodd">
        <g id="Group-48">
            <polygon id="Rectangle-21-Copy-20" fill="#2A80CC" fill-rule="nonzero" points="0 0 255 0 255 400 0 400"></polygon>
            <path d="M169.5,437.546688 L169.5,189.4329 C169.5,166.833595 150.927025,148.5 128,148.5 C105.072975,148.5 86.5,166.833595 86.5,189.4329 L86.5,437.501365 L169.5,437.546688 Z" id="Path" stroke="#071D49" stroke-width="5" fill="#FFCE38" fill-rule="nonzero"></path>
            <rect id="Rectangle-Copy-7" fill="#071D49" fill-rule="nonzero" x="99" y="269" width="58" height="5"></rect>
            <rect id="Rectangle-Copy-8" fill="#071D49" fill-rule="nonzero" x="99" y="279" width="58" height="5"></rect>
            <path d="M154.5,230.5 L154.5,189.317687 C154.5,174.500627 142.629412,162.5 128,162.5 C113.370588,162.5 101.5,174.500627 101.5,189.317687 L101.5,230.5 L154.5,230.5 Z" id="Path" stroke="#071D49" stroke-width="5" fill="#F82A54" fill-rule="nonzero"></path>
            <g id="Group-27" transform="translate(52.000000, 112.000000)"></g>
        </g>
        <path d="M74,188 C74,158.186113 98.3910799,134 128.5,134 C158.60892,134 183,158.186113 183,188 L188,188 C188,155.4152 161.360943,129 128.5,129 C95.6390574,129 69,155.4152 69,188 L74,188 Z" id="Path" fill="#000000" fill-rule="nonzero"></path>
        <path d="M74,188 L69,188 C69,155.4152 95.6390574,129 128.5,129 C161.360943,129 188,155.4152 188,188 L183,188 C183,158.186113 158.60892,134 128.5,134 C98.3910799,134 74,158.186113 74,188 Z" id="Path" fill="#071D49" fill-rule="nonzero"></path>
        <path d="M57,188 C57,148.787783 88.7877828,117 128,117 C167.212217,117 199,148.787783 199,188 L204,188 C204,146.026359 169.973641,112 128,112 C86.026359,112 52,146.026359 52,188 L57,188 Z" id="Path" fill="#071D49" fill-rule="nonzero"></path>
    </g>
</svg>