<?xml version="1.0" encoding="UTF-8"?>
<svg width="255px" height="400px" viewBox="0 0 255 400" version="1.1" xmlns="http://www.w3.org/2000/svg" xmlns:xlink="http://www.w3.org/1999/xlink">
    <!-- Generator: Sketch 52.2 (67145) - http://www.bohemiancoding.com/sketch -->
    <title>major_research_illus</title>
    <desc>Created with Sketch.</desc>
    <g id="major_research_illus" stroke="none" stroke-width="1" fill="none" fill-rule="evenodd">
        <g id="Group" fill-rule="nonzero">
            <polygon id="Rectangle-21-Copy-19" fill="#FFCE38" points="0 0 255 0 255 400 0 400"></polygon>
            <circle id="Oval" stroke="#000000" stroke-width="5" fill="#2A80CC" cx="131" cy="205" r="91"></circle>
            <g id="Group-16" transform="translate(61.000000, 165.000000)">
                <path d="M3.67883501e-12,40.5 C13.9726171,16.2890445 40.0884901,0 70,0 C99.9115099,0 126.027383,16.2890445 140,40.5 C126.027383,64.7109555 99.9115099,81 70,81 C40.0884901,81 13.9726171,64.7109555 -2.32791564e-12,40.5 Z" id="Combined-Shape" fill="#FFCE38"></path>
                <path d="M2.90178315,40.5 C16.9652868,63.8699432 42.2102769,78.5 70,78.5 C97.7897231,78.5 123.034713,63.8699432 137.098217,40.5 C123.034713,17.1300568 97.7897231,2.5 70,2.5 C42.2102769,2.5 16.9652868,17.1300568 2.90178315,40.5 Z" id="Combined-Shape" stroke="#000000" stroke-width="5"></path>
                <circle id="Oval" fill="#EA0537" cx="70" cy="41" r="25"></circle>
                <circle id="Oval" fill="#000000" cx="70" cy="41" r="8"></circle>
                <circle id="Oval" stroke="#000000" stroke-width="5" cx="70" cy="41" r="22.5"></circle>
            </g>
            <g id="Group-19" transform="translate(116.000000, 314.000000)" stroke="#000000" stroke-width="5">
                <polyline id="Path" points="0 102 0 0 0 0 31 0 31 102"></polyline>
            </g>
            <g id="Group-19" transform="translate(116.000000, 298.000000)" stroke="#000000" stroke-width="5">
                <polyline id="Path" points="0 102 0 0 0 0 31 0 31 102"></polyline>
            </g>
            <path d="M212,205.5 C212,161.041078 175.958922,125 131.5,125" id="Path" stroke="#000000" stroke-width="5"></path>
        </g>
    </g>
</svg>