<?xml version="1.0" encoding="UTF-8"?>
<svg width="255px" height="400px" viewBox="0 0 255 400" version="1.1" xmlns="http://www.w3.org/2000/svg" xmlns:xlink="http://www.w3.org/1999/xlink">
    <!-- Generator: Sketch 52.2 (67145) - http://www.bohemiancoding.com/sketch -->
    <title>major_frontend_illus</title>
    <desc>Created with Sketch.</desc>
    <g id="major_frontend_illus" stroke="none" stroke-width="1" fill="none" fill-rule="evenodd">
        <g id="Group-4">
            <polygon id="Rectangle-21-Copy-19" fill="#FFCE38" fill-rule="nonzero" points="0 0 255 0 255 400 0 400"></polygon>
            <rect id="Rectangle" fill="#F82A54" fill-rule="nonzero" x="39" y="167" width="182" height="120"></rect>
            <path d="M41.5,284.5 L218.5,284.5 L218.5,146 C218.5,141.857864 215.142136,138.5 211,138.5 L49,138.5 C44.8578644,138.5 41.5,141.857864 41.5,146 L41.5,284.5 Z" id="Rectangle" stroke="#000000" stroke-width="5" fill-rule="nonzero"></path>
            <path d="M41.5,169.5 L218.5,169.5 L218.5,146 C218.5,141.857864 215.142136,138.5 211,138.5 L49,138.5 C44.8578644,138.5 41.5,141.857864 41.5,146 L41.5,169.5 Z" id="Rectangle" stroke="#1F0824" stroke-width="5" fill-rule="nonzero"></path>
            <rect id="Rectangle" fill="#000000" fill-rule="nonzero" x="39" y="167" width="182" height="5"></rect>
            <circle id="Oval" fill="#000000" fill-rule="nonzero" cx="204" cy="154" r="5"></circle>
            <circle id="Oval" fill="#000000" fill-rule="nonzero" cx="189" cy="154" r="5"></circle>
            <circle id="Oval" fill="#000000" fill-rule="nonzero" cx="174" cy="154" r="5"></circle>
            <polygon id="Path" fill="#000000" points="146 203.447132 171.8331 224.000695 146 244.552868 149.578418 249 181 224.000695 149.578418 199"></polygon>
            <polygon id="Path" fill="#000000" points="110.421582 199 79 224.000695 110.421582 249 114 244.552868 88.1668998 224.000695 114 203.447132"></polygon>
            <polygon id="Path" fill="#000000" points="117 253.141847 137.513658 193 143 194.858153 122.487757 255"></polygon>
            <rect id="Rectangle" stroke="#000000" stroke-width="5" fill="#2A80CC" fill-rule="nonzero" x="104" y="309" width="52" height="88" rx="26"></rect>
            <rect id="Rectangle" fill="#000000" fill-rule="nonzero" x="127" y="285" width="5" height="59"></rect>
            <rect id="Rectangle-Copy-9" fill="#000000" fill-rule="nonzero" x="104" y="341" width="52" height="5"></rect>
        </g>
        <g id="Group-4-Copy" transform="translate(39.000000, 136.000000)">
            <g id="Group">
                <g id="Group-2"></g>
                <g id="Group-47" transform="translate(40.000000, 57.000000)"></g>
            </g>
            <g id="Group-4-Copy-2" transform="translate(65.000000, 149.000000)">
                <g id="Group-3"></g>
            </g>
        </g>
    </g>
</svg>