<?xml version="1.0" encoding="UTF-8"?>
<svg width="575px" height="700px" viewBox="0 0 575 700" version="1.1" xmlns="http://www.w3.org/2000/svg" xmlns:xlink="http://www.w3.org/1999/xlink">
    <!-- Generator: Sketch 52.2 (67145) - http://www.bohemiancoding.com/sketch -->
    <title>Help_01</title>
    <desc>Created with Sketch.</desc>
    <g id="Help_01" stroke="none" stroke-width="1" fill="none" fill-rule="evenodd">
        <g id="Group-7{:linearEase;1,64,63,116,117,360,1;}" transform="translate(64.000000, 63.000000)">
            <polygon id="Combined-Shape-Copy-6" stroke="#000000" stroke-width="5" fill="#000000" fill-rule="nonzero" points="116 3.97903932e-13 116 99.6445313 96.5556115 116.401107 2.43022876e-12 116.401107 4.02509883e-12 16.9273258 16.4630317 7.94970007e-10"></polygon>
            <rect id="Rectangle-Copy-12" stroke="#000000" stroke-width="5" fill="#2A80CC" fill-rule="nonzero" x="18" y="0" width="98" height="98"></rect>
            <text id="F1" font-family="IBMPlexSans-SemiBold, IBM Plex Sans SemiBold" font-size="32" font-weight="500" fill="#000000">
                <tspan x="33" y="40">F1</tspan>
            </text>
        </g>
        <g id="Group-4-Copy" transform="translate(179.000000, 518.000000)" stroke="#000000">
            <polygon id="Combined-Shape-Copy-3" stroke-width="5" fill="#000000" fill-rule="nonzero" points="199 4.484357e-13 199 99.6445313 179.555612 116.401107 2.1033791e-12 116.401107 3.69824917e-12 16.9273258 16.4630317 7.94971432e-10"></polygon>
            <rect id="Rectangle-Copy-9" stroke-width="5" fill="#FFCE38" fill-rule="nonzero" x="18" y="0" width="181" height="98"></rect>
            <path d="M48.828125,37.453125 L53.453125,37.453125 L53.453125,32.828125 L48.828125,32.828125 L48.828125,37.453125 Z M48.828125,39.765625 L48.828125,42.421875 C48.828125,43.755215 48.346359,44.8984327 47.3828125,45.8515625 C46.419266,46.8046923 45.2604234,47.28125 43.90625,47.28125 C42.5520766,47.28125 41.3958381,46.8020881 40.4375,45.84375 C39.4791619,44.8854119 39,43.7239652 39,42.359375 C39,41.026035 39.4791619,39.8750048 40.4375,38.90625 C41.3958381,37.9374952 42.5364517,37.453125 43.859375,37.453125 L46.515625,37.453125 L46.515625,32.828125 L43.859375,32.828125 C42.5364517,32.828125 41.3958381,32.3437548 40.4375,31.375 C39.4791619,30.4062452 39,29.2500067 39,27.90625 C39,26.5520766 39.4791619,25.3958381 40.4375,24.4375 C41.3958381,23.4791619 42.5520766,23 43.90625,23 C45.2604234,23 46.419266,23.4765577 47.3828125,24.4296875 C48.346359,25.3828173 48.828125,26.526035 48.828125,27.859375 L48.828125,30.515625 L53.453125,30.515625 L53.453125,27.859375 C53.453125,26.526035 53.934891,25.3828173 54.8984375,24.4296875 C55.861984,23.4765577 57.0208266,23 58.375,23 C59.7395902,23 60.8984327,23.4791619 61.8515625,24.4375 C62.8046923,25.3958381 63.28125,26.5520766 63.28125,27.90625 C63.28125,29.2500067 62.8046923,30.4062452 61.8515625,31.375 C60.8984327,32.3437548 59.755215,32.828125 58.421875,32.828125 L55.765625,32.828125 L55.765625,37.453125 L58.421875,37.453125 C59.755215,37.453125 60.8984327,37.9374952 61.8515625,38.90625 C62.8046923,39.8750048 63.28125,41.026035 63.28125,42.359375 C63.28125,43.7239652 62.8046923,44.8854119 61.8515625,45.84375 C60.8984327,46.8020881 59.7395902,47.28125 58.375,47.28125 C57.0208266,47.28125 55.861984,46.8046923 54.8984375,45.8515625 C53.934891,44.8984327 53.453125,43.755215 53.453125,42.421875 L53.453125,39.765625 L48.828125,39.765625 Z M46.515625,30.515625 L46.515625,27.90625 C46.515625,27.1874964 46.2604192,26.5755234 45.75,26.0703125 C45.2395808,25.5651016 44.6250036,25.3125 43.90625,25.3125 C43.1979131,25.3125 42.5885442,25.5651016 42.078125,26.0703125 C41.5677058,26.5755234 41.3125,27.1874964 41.3125,27.90625 C41.3125,28.6250036 41.5677058,29.2395808 42.078125,29.75 C42.5885442,30.2604192 43.2031214,30.515625 43.921875,30.515625 L46.515625,30.515625 Z M46.515625,39.765625 L43.921875,39.765625 C43.2031214,39.765625 42.5885442,40.0208308 42.078125,40.53125 C41.5677058,41.0416692 41.3125,41.6510381 41.3125,42.359375 C41.3125,43.0781286 41.5677058,43.6927058 42.078125,44.203125 C42.5885442,44.7135442 43.2031214,44.96875 43.921875,44.96875 C44.6302119,44.96875 45.2395808,44.7135442 45.75,44.203125 C46.2604192,43.6927058 46.515625,43.0833369 46.515625,42.375 L46.515625,39.765625 Z M55.765625,30.515625 L58.375,30.515625 C59.0833369,30.515625 59.6927058,30.2604192 60.203125,29.75 C60.7135442,29.2395808 60.96875,28.6250036 60.96875,27.90625 C60.96875,27.1874964 60.7161484,26.5755234 60.2109375,26.0703125 C59.7057266,25.5651016 59.0937536,25.3125 58.375,25.3125 C57.6562464,25.3125 57.0416692,25.5651016 56.53125,26.0703125 C56.0208308,26.5755234 55.765625,27.1874964 55.765625,27.90625 L55.765625,30.515625 Z M55.765625,39.765625 L55.765625,42.375 C55.765625,43.0833369 56.0208308,43.6927058 56.53125,44.203125 C57.0416692,44.7135442 57.6562464,44.96875 58.375,44.96875 C59.0937536,44.96875 59.7057266,44.7135442 60.2109375,44.203125 C60.7161484,43.6927058 60.96875,43.0781286 60.96875,42.359375 C60.96875,41.6510381 60.7135442,41.0416692 60.203125,40.53125 C59.6927058,40.0208308 59.0833369,39.765625 58.375,39.765625 L55.765625,39.765625 Z" id="⌘-copy-2" fill="#000000"></path>
        </g>
        <g id="Group-3-Copy" transform="translate(394.000000, 518.000000)">
            <polygon id="Combined-Shape-Copy-4" stroke="#000000" stroke-width="5" fill="#000000" fill-rule="nonzero" points="116 4.12114787e-13 116 99.6445313 96.5556115 116.401107 1.81916201e-12 116.401107 3.41403208e-12 16.9273258 16.4630317 7.94984218e-10"></polygon>
            <rect id="Rectangle-Copy-10" stroke="#000000" stroke-width="5" fill="#FFCE38" fill-rule="nonzero" x="18" y="0" width="98" height="98"></rect>
            <path d="M47.8764134,33.9903998 L47.8764134,40 L40.5112279,40 L40.5112279,33.9903998 L34,33.9903998 L44,21 L54,33.9903998 L47.8764134,33.9903998 Z" id="Rectangle-115" stroke="#000000" stroke-width="4"></path>
            <rect id="Rectangle-117" fill="#000000" x="34" y="45" width="20" height="4"></rect>
        </g>
        <g id="Group-2-Copy" transform="translate(394.000000, 385.000000)">
            <polygon id="Combined-Shape-Copy-5" stroke="#000000" stroke-width="5" fill="#000000" fill-rule="nonzero" points="116 3.97903932e-13 116 99.6445313 96.5556115 116.401107 2.43022876e-12 116.401107 4.02509883e-12 16.9273258 16.4630317 7.94970007e-10"></polygon>
            <rect id="Rectangle-Copy-11" stroke="#000000" stroke-width="5" fill="#FFCE38" fill-rule="nonzero" x="18" y="0" width="98" height="98"></rect>
            <text id="?-copy-4" font-family="IBMPlexSans-SemiBold, IBM Plex Sans SemiBold" font-size="32" font-weight="500" fill="#000000">
                <tspan x="33" y="40">?</tspan>
            </text>
        </g>
    </g>
</svg>